<?xml version="1.0" encoding="UTF-8" standalone="no"?>
<svg
   width="124"
   height="39"
   viewBox="0 0 129.67938 39"
   fill="none"
   version="1.1"
   id="svg50"
   sodipodi:docname="app-store.svg"
   inkscape:version="1.2.1 (9c6d41e4, 2022-07-14)"
   xmlns:inkscape="http://www.inkscape.org/namespaces/inkscape"
   xmlns:sodipodi="http://sodipodi.sourceforge.net/DTD/sodipodi-0.dtd"
   xmlns="http://www.w3.org/2000/svg"
   xmlns:svg="http://www.w3.org/2000/svg">
  <defs
     id="defs54" />
  <sodipodi:namedview
     id="namedview52"
     pagecolor="#ffffff"
     bordercolor="#999999"
     borderopacity="1"
     inkscape:showpageshadow="0"
     inkscape:pageopacity="0"
     inkscape:pagecheckerboard="0"
     inkscape:deskcolor="#d1d1d1"
     showgrid="false"
     inkscape:zoom="9.5114504"
     inkscape:cx="61.504815"
     inkscape:cy="14.088283"
     inkscape:window-width="1920"
     inkscape:window-height="972"
     inkscape:window-x="0"
     inkscape:window-y="25"
     inkscape:window-maximized="1"
     inkscape:current-layer="svg50" />
  <path
     d="m 42.7018,26.577768 h -4.7334 l -1.1368,3.3565 h -2.0048 l 4.4834,-12.418 h 2.083 l 4.4834,12.418 h -2.0391 z m -4.2432,-1.5488 h 3.752 l -1.8496,-5.4473 h -0.0518 z"
     fill="#000000"
     id="path2" />
  <path
     d="m 55.5592,25.407868 c 0,2.8135 -1.5059,4.6211 -3.7783,4.6211 -0.5757,0.0301 -1.1482,-0.1025 -1.652,-0.3826 -0.5038,-0.2802 -0.9185,-0.6965 -1.1966,-1.2014 h -0.043 v 4.4844 h -1.8584 v -12.0489 h 1.7988 v 1.5059 h 0.0342 c 0.2909,-0.5025 0.7127,-0.9166 1.2203,-1.1985 0.5076,-0.2818 1.0822,-0.4208 1.6625,-0.4021 2.2979,0 3.8125,1.8164 3.8125,4.6221 z m -1.9102,0 c 0,-1.833 -0.9472,-3.0381 -2.3925,-3.0381 -1.42,0 -2.375,1.2305 -2.375,3.0381 0,1.8242 0.955,3.0459 2.375,3.0459 1.4453,0 2.3925,-1.1963 2.3925,-3.0459 z"
     fill="#000000"
     id="path4" />
  <path
     d="m 65.5245,25.407868 c 0,2.8135 -1.5063,4.6211 -3.7788,4.6211 -0.5756,0.0301 -1.1481,-0.1025 -1.6519,-0.3826 -0.5038,-0.2802 -0.9185,-0.6965 -1.1967,-1.2014 h -0.043 v 4.4844 h -1.8584 v -12.0489 h 1.7988 v 1.5059 h 0.0342 c 0.291,-0.5025 0.7127,-0.9166 1.2203,-1.1985 0.5077,-0.2818 1.0822,-0.4208 1.6625,-0.4021 2.2979,0 3.813,1.8164 3.813,4.6221 z m -1.9106,0 c 0,-1.833 -0.9473,-3.0381 -2.3926,-3.0381 -1.4199,0 -2.375,1.2305 -2.375,3.0381 0,1.8242 0.9551,3.0459 2.375,3.0459 1.4453,0 2.3926,-1.1963 2.3926,-3.0459 z"
     fill="#000000"
     id="path6" />
  <path
     d="m 72.109,26.474268 c 0.1377,1.2315 1.334,2.04 2.9688,2.04 1.5664,0 2.6933,-0.8086 2.6933,-1.9189 0,-0.9639 -0.6796,-1.541 -2.289,-1.9365 l -1.6094,-0.3877 c -2.2803,-0.5508 -3.3389,-1.6172 -3.3389,-3.3477 0,-2.1426 1.8672,-3.6143 4.5176,-3.6143 2.625,0 4.4239,1.4717 4.4844,3.6143 h -1.876 c -0.1123,-1.2393 -1.1367,-1.9873 -2.6338,-1.9873 -1.4971,0 -2.5215,0.7568 -2.5215,1.8584 0,0.8779 0.6543,1.3945 2.2549,1.79 l 1.3682,0.3359 c 2.5478,0.6026 3.6054,1.626 3.6054,3.4424 0,2.3233 -1.8496,3.7783 -4.793,3.7783 -2.7539,0 -4.6132,-1.4209 -4.7334,-3.667 z"
     fill="#000000"
     id="path8" />
  <path
     d="m 83.7457,18.737968 v 2.1426 h 1.7217 v 1.4717 h -1.7217 v 4.9912 c 0,0.7754 0.3447,1.1367 1.1016,1.1367 0.2043,-0.0036 0.4084,-0.0179 0.6113,-0.043 v 1.4629 c -0.3403,0.0636 -0.6861,0.0924 -1.0322,0.0859 -1.833,0 -2.5479,-0.6885 -2.5479,-2.4443 v -5.1894 h -1.3164 v -1.4717 h 1.3164 v -2.1426 z"
     fill="#000000"
     id="path10" />
  <path
     d="m 86.4645,25.407868 c 0,-2.8486 1.6777,-4.6386 4.2939,-4.6386 2.625,0 4.2949,1.79 4.2949,4.6386 0,2.8565 -1.6611,4.6387 -4.2949,4.6387 -2.6328,0 -4.2939,-1.7822 -4.2939,-4.6387 z m 6.6953,0 c 0,-1.9541 -0.8955,-3.1074 -2.4014,-3.1074 -1.5059,0 -2.4014,1.1621 -2.4014,3.1074 0,1.9619 0.8955,3.1065 2.4014,3.1065 1.5059,0 2.4014,-1.1446 2.4014,-3.1065 z"
     fill="#000000"
     id="path12" />
  <path
     d="m 96.5846,20.880568 h 1.7724 v 1.541 H 98.4 c 0.12,-0.4813 0.4019,-0.9066 0.7985,-1.2045 0.3965,-0.2979 0.8835,-0.4502 1.3795,-0.4313 0.214,-7e-4 0.428,0.0226 0.636,0.0694 v 1.7383 c -0.27,-0.0827 -0.552,-0.1206 -0.835,-0.1123 -0.269,-0.011 -0.539,0.0366 -0.788,0.1395 -0.2503,0.1029 -0.4749,0.2586 -0.6589,0.4565 -0.184,0.1979 -0.323,0.4333 -0.4074,0.6899 -0.0844,0.2567 -0.1123,0.5286 -0.0817,0.7971 v 5.3701 h -1.8584 z"
     fill="#000000"
     id="path14" />
  <path
     d="m 109.784,27.275068 c -0.25,1.6436 -1.851,2.7715 -3.899,2.7715 -2.633,0 -4.268,-1.7647 -4.268,-4.5957 0,-2.8398 1.643,-4.6816 4.19,-4.6816 2.505,0 4.08,1.7207 4.08,4.4658 v 0.6367 h -6.394 v 0.1123 c -0.03,0.3332 0.012,0.6689 0.122,0.9847 0.11,0.3158 0.286,0.6046 0.517,0.8472 0.23,0.2425 0.509,0.4333 0.819,0.5596 0.31,0.1263 0.643,0.1852 0.977,0.1729 0.439,0.0412 0.88,-0.0605 1.257,-0.29 0.377,-0.2294 0.669,-0.5743 0.834,-0.9834 z m -6.282,-2.7021 h 4.526 c 0.017,-0.2996 -0.029,-0.5994 -0.133,-0.8807 -0.105,-0.2812 -0.267,-0.5377 -0.475,-0.7535 -0.209,-0.2157 -0.46,-0.3861 -0.737,-0.5003 -0.278,-0.1142 -0.576,-0.1698 -0.876,-0.1634 -0.302,-0.0018 -0.602,0.0564 -0.882,0.1711 -0.28,0.1147 -0.535,0.2838 -0.749,0.4974 -0.215,0.2137 -0.385,0.4676 -0.5,0.7473 -0.116,0.2796 -0.175,0.5794 -0.174,0.8821 z"
     fill="#000000"
     id="path16" />
  <path
     d="m 38.2262,8.1691778 c 0.3896,-0.02796 0.7805,0.0309 1.1447,0.17234 0.3641,0.14145 0.6923,0.36195 0.9608,0.64555 0.2686,0.2836 0.4709,0.6233 0.5923,0.9946 0.1214,0.3713002 0.1589,0.7648002 0.1098,1.1524002 0,1.9062 -1.0303,3.002 -2.8076,3.002 H 36.0709 V 8.1691778 Z m -1.2286,5.1229902 h 1.125 c 0.2785,0.0167 0.5571,-0.029 0.8156,-0.1336 0.2585,-0.1046 0.4905,-0.2656 0.679,-0.4711 0.1885,-0.2056 0.3288,-0.4506 0.4106,-0.7172 0.0819,-0.2666 0.1033,-0.5482 0.0626,-0.8241 0.0377,-0.2748 0.0142,-0.5546 -0.0689,-0.8193 -0.0832,-0.2646 -0.2238,-0.5076002 -0.4119,-0.7116002 -0.188,-0.2039 -0.4189,-0.3637 -0.6759,-0.4679 -0.2571,-0.1043 -0.5341,-0.1503 -0.8111,-0.135 h -1.125 z"
     fill="#000000"
     id="path18" />
  <path
     d="m 42.08,11.882468 c -0.0283,-0.2959 0.0055,-0.5944 0.0994,-0.8765 0.0938,-0.2821 0.2455,-0.5414 0.4455,-0.7614 0.1999,-0.22 0.4436,-0.3957002 0.7155,-0.5160002 0.2718,-0.1203 0.5658,-0.1824 0.8631,-0.1824 0.2973,0 0.5913,0.0621 0.8631,0.1824 0.2719,0.1203 0.5156,0.2960002 0.7155,0.5160002 0.2,0.22 0.3517,0.4793 0.4456,0.7614 0.0938,0.2821 0.1276,0.5806 0.0993,0.8765 0.0289,0.2963 -0.0046,0.5953 -0.0982,0.8778 -0.0935,0.2825 -0.2452,0.5423 -0.4452,0.7627 -0.2,0.2204 -0.4439,0.3966 -0.716,0.5171 -0.2721,0.1206 -0.5665,0.1828 -0.8641,0.1828 -0.2976,0 -0.592,-0.0622 -0.8641,-0.1828 -0.2721,-0.1205 -0.516,-0.2967 -0.716,-0.5171 -0.2,-0.2204 -0.3516,-0.4802 -0.4452,-0.7627 -0.0936,-0.2825 -0.1271,-0.5815 -0.0982,-0.8778 z m 3.333,0 c 0,-0.976 -0.4385,-1.5468 -1.208,-1.5468 -0.7725,0 -1.207,0.5708 -1.207,1.5469 0,0.9838 0.4345,1.5502 1.207,1.5502 0.7695,0 1.208,-0.5703 1.208,-1.5503 z"
     fill="#000000"
     id="path20" />
  <path
     d="m 51.9732,14.135968 h -0.9218 l -0.9307,-3.3165 h -0.0703 l -0.9268,3.3165 H 48.2105 L 46.9693,9.6329678 h 0.9014 l 0.8066,3.4360002 h 0.0665 l 0.9257,-3.4360002 h 0.8526 l 0.9258,3.4360002 h 0.0703 l 0.8027,-3.4360002 h 0.8887 z"
     fill="#000000"
     id="path22" />
  <path
     d="m 54.2535,9.6329678 h 0.8555 v 0.7153002 h 0.0664 c 0.1126,-0.2569 0.3027,-0.4723002 0.5435,-0.6161002 0.2409,-0.1438 0.5206,-0.2088 0.8002,-0.1861 0.2191,-0.0165 0.4391,0.0165 0.6437,0.0966 0.2046,0.0801 0.3886,0.2052 0.5383,0.3661002 0.1497,0.1608 0.2612,0.3533 0.3264,0.5631 0.0652,0.2098 0.0824,0.4316 0.0502,0.649 v 2.915 h -0.8886 v -2.6919 c 0,-0.7236 -0.3145,-1.0835 -0.9717,-1.0835 -0.1488,-0.0069 -0.2973,0.0184 -0.4353,0.0743 -0.1381,0.0558 -0.2624,0.1408 -0.3646,0.2492 -0.1021,0.1084 -0.1796,0.2376 -0.2271,0.3787 -0.0475,0.1411 -0.064,0.2909 -0.0482,0.439 v 2.6342 h -0.8887 z"
     fill="#000000"
     id="path24" />
  <path
     d="m 59.4938,7.8751778 h 0.8886 v 6.2607902 h -0.8886 z"
     fill="#000000"
     id="path26" />
  <path
     d="m 61.6171,11.882568 c -0.0283,-0.296 0.0055,-0.5945 0.0994,-0.8766 0.0939,-0.2821 0.2456,-0.5415 0.4456,-0.7614 0.2,-0.22 0.4437,-0.3958002 0.7156,-0.5161002 0.2718,-0.1203 0.5658,-0.1824 0.8631,-0.1824 0.2973,0 0.5913,0.0621 0.8632,0.1824 0.2719,0.1203 0.5156,0.2961002 0.7156,0.5161002 0.1999,0.2199 0.3517,0.4793 0.4456,0.7614 0.0938,0.2821 0.1277,0.5806 0.0994,0.8766 0.0288,0.2962 -0.0047,0.5952 -0.0983,0.8777 -0.0936,0.2825 -0.2453,0.5424 -0.4453,0.7628 -0.2,0.2204 -0.4439,0.3965 -0.7161,0.517 -0.2721,0.1206 -0.5664,0.1828 -0.8641,0.1828 -0.2976,0 -0.5919,-0.0622 -0.8641,-0.1828 -0.2721,-0.1205 -0.516,-0.2966 -0.716,-0.517 -0.2,-0.2204 -0.3517,-0.4803 -0.4454,-0.7628 -0.0936,-0.2825 -0.1271,-0.5815 -0.0982,-0.8777 z m 3.333,0 c 0,-0.9761 -0.4385,-1.5469 -1.208,-1.5469 -0.7725,0 -1.207,0.5708 -1.207,1.5469 0,0.9839 0.4345,1.5503 1.207,1.5503 0.7695,0 1.208,-0.5703 1.208,-1.5503 z"
     fill="#000000"
     id="path28" />
  <path
     d="m 66.8004,12.862468 c 0,-0.8105 0.6035,-1.2778 1.6748,-1.3442 l 1.2197,-0.0703 v -0.3887 c 0,-0.4756 -0.3144,-0.7441 -0.9219,-0.7441 -0.496,0 -0.8398,0.1821 -0.9384,0.5004 h -0.8604 c 0.0908,-0.7734 0.8184,-1.2695002 1.8399,-1.2695002 1.1289,0 1.7656,0.5620002 1.7656,1.5132002 v 3.0767 h -0.8555 v -0.6329 h -0.0703 c -0.1427,0.227 -0.3431,0.4121 -0.5807,0.5363 -0.2377,0.1242 -0.504,0.1831 -0.7718,0.1707 -0.1891,0.0197 -0.3801,-5e-4 -0.5609,-0.0592 -0.1807,-0.0587 -0.3472,-0.1546 -0.4886,-0.2816 -0.1414,-0.1269 -0.2547,-0.2821 -0.3324,-0.4555 -0.0778,-0.1735 -0.1184,-0.3612 -0.1191,-0.5513 z m 2.8945,-0.3848 v -0.3764 l -1.0996,0.0703 c -0.6201,0.0415 -0.9014,0.2524 -0.9014,0.6494 0,0.4053 0.3516,0.6411 0.835,0.6411 0.1417,0.0143 0.2848,0 0.4208,-0.042 0.136,-0.0421 0.2621,-0.1112 0.3709,-0.203 0.1088,-0.0918 0.198,-0.2046 0.2623,-0.3316 0.0643,-0.1271 0.1024,-0.2657 0.112,-0.4078 z"
     fill="#000000"
     id="path30" />
  <path
     d="m 71.7477,11.882568 c 0,-1.4229 0.7314,-2.3243002 1.8691,-2.3243002 0.2814,-0.0129 0.5607,0.0545 0.8052,0.1944 0.2446,0.1399 0.4442,0.3465002 0.5757,0.5956002 h 0.0664 V 7.8751778 h 0.8886 v 6.2607902 h -0.8515 v -0.7115 h -0.0703 c -0.1416,0.2475 -0.3483,0.4515 -0.5975,0.59 -0.2493,0.1385 -0.5317,0.2062 -0.8166,0.1957 -1.1455,0 -1.8691,-0.9014 -1.8691,-2.3276 z m 0.918,0 c 0,0.955 0.4502,1.5297 1.2031,1.5297 0.749,0 1.2119,-0.583 1.2119,-1.5258 0,-0.9385 -0.4678,-1.5298 -1.2119,-1.5298 -0.7481,0 -1.2032,0.5786 -1.2032,1.5259 z"
     fill="#000000"
     id="path32" />
  <path
     d="m 79.6298,11.882468 c -0.0283,-0.2959 0.0055,-0.5944 0.0994,-0.8765 0.0938,-0.2821 0.2456,-0.5414 0.4455,-0.7614 0.1999,-0.22 0.4436,-0.3957002 0.7155,-0.5160002 0.2718,-0.1203 0.5658,-0.1824 0.8631,-0.1824 0.2973,0 0.5913,0.0621 0.8631,0.1824 0.2719,0.1203 0.5156,0.2960002 0.7155,0.5160002 0.2,0.22 0.3517,0.4793 0.4456,0.7614 0.0938,0.2821 0.1277,0.5806 0.0993,0.8765 0.0289,0.2963 -0.0046,0.5953 -0.0982,0.8778 -0.0935,0.2825 -0.2452,0.5423 -0.4452,0.7627 -0.2,0.2204 -0.4439,0.3966 -0.716,0.5171 -0.2721,0.1206 -0.5665,0.1828 -0.8641,0.1828 -0.2976,0 -0.592,-0.0622 -0.8641,-0.1828 -0.2721,-0.1205 -0.516,-0.2967 -0.716,-0.5171 -0.2,-0.2204 -0.3516,-0.4802 -0.4452,-0.7627 -0.0936,-0.2825 -0.1271,-0.5815 -0.0982,-0.8778 z m 3.333,0 c 0,-0.976 -0.4385,-1.5468 -1.208,-1.5468 -0.7725,0 -1.207,0.5708 -1.207,1.5469 0,0.9838 0.4345,1.5502 1.207,1.5502 0.7695,0 1.208,-0.5703 1.208,-1.5503 z"
     fill="#000000"
     id="path34" />
  <path
     d="m 85.0689,9.6329678 h 0.8555 v 0.7153002 h 0.0664 c 0.1127,-0.2569 0.3027,-0.4723002 0.5436,-0.6161002 0.2408,-0.1438 0.5206,-0.2088 0.8002,-0.1861 0.2191,-0.0165 0.4391,0.0165 0.6437,0.0966 0.2046,0.0801 0.3885,0.2052 0.5382,0.3661002 0.1497,0.1608 0.2613,0.3533 0.3265,0.5631 0.0652,0.2098 0.0823,0.4316 0.0502,0.649 v 2.915 h -0.8887 v -2.6919 c 0,-0.7236 -0.3144,-1.0835 -0.9717,-1.0835 -0.1487,-0.0069 -0.2972,0.0184 -0.4353,0.0743 -0.1381,0.0558 -0.2624,0.1408 -0.3645,0.2492 -0.1022,0.1084 -0.1796,0.2376 -0.2272,0.3787 -0.0475,0.1411 -0.0639,0.2909 -0.0482,0.439 v 2.6342 h -0.8887 z"
     fill="#000000"
     id="path36" />
  <path
     d="m 93.9146,8.5118678 v 1.1416 h 0.9756 v 0.7486002 h -0.9756 v 2.3154 c 0,0.4717 0.1944,0.6782 0.6368,0.6782 0.1132,-3e-4 0.2264,-0.0072 0.3388,-0.0205 v 0.7402 c -0.1595,0.0286 -0.3212,0.0438 -0.4834,0.0454 -0.9882,0 -1.3818,-0.3476 -1.3818,-1.2158 v -2.543 H 92.3102 V 9.6534678 h 0.7148 v -1.1416 z"
     fill="#000000"
     id="path38" />
  <path
     d="m 96.1051,7.8751778 h 0.8808 v 2.4814902 h 0.0703 c 0.1182,-0.2594 0.3134,-0.4760002 0.5591,-0.6203002 0.2457,-0.1443 0.5299,-0.2094 0.8139,-0.1864 0.218,-0.0118 0.4359,0.0246 0.6382,0.1066 0.2023,0.082 0.3836,0.2077 0.5316,0.3680002 0.149,0.1604 0.259,0.3514 0.325,0.5596 0.066,0.2081 0.085,0.4282 0.056,0.6445 v 2.9073 h -0.8895 v -2.688 c 0,-0.7193 -0.335,-1.0835 -0.9629,-1.0835 -0.1528,-0.0126 -0.3064,0.0084 -0.4502,0.0615 -0.1437,0.053 -0.2742,0.1369 -0.3822,0.2456 -0.108,0.1087 -0.1909,0.2398 -0.243,0.3839 -0.052,0.1441 -0.072,0.2979 -0.0584,0.4506 v 2.6298 h -0.8887 z"
     fill="#000000"
     id="path40" />
  <path
     d="m 105.161,12.920068 c -0.12,0.4116 -0.382,0.7676 -0.739,1.0057 -0.356,0.2382 -0.785,0.3433 -1.212,0.2971 -0.296,0.0078 -0.591,-0.049 -0.864,-0.1665 -0.272,-0.1176 -0.516,-0.293 -0.714,-0.5141 -0.198,-0.2212 -0.345,-0.4827 -0.432,-0.7665 -0.087,-0.2839 -0.11,-0.5832 -0.07,-0.8771 -0.039,-0.2949 -0.015,-0.5949 0.071,-0.8795 0.087,-0.2847 0.234,-0.5475 0.43,-0.7705 0.197,-0.2231 0.44,-0.4013002 0.712,-0.5225002 0.271,-0.1212 0.566,-0.1826 0.863,-0.1801 1.253,0 2.009,0.8560002 2.009,2.2700002 v 0.3101 h -3.18 v 0.0498 c -0.014,0.1653 0.007,0.3316 0.061,0.4883 0.055,0.1568 0.141,0.3005 0.254,0.422 0.113,0.1214 0.25,0.2179 0.402,0.2833 0.152,0.0654 0.317,0.0983 0.483,0.0964 0.212,0.0255 0.428,-0.0127 0.618,-0.11 0.191,-0.0972 0.349,-0.2489 0.453,-0.4359 z m -3.126,-1.4511 h 2.275 c 0.011,-0.1512 -0.01,-0.303 -0.06,-0.4457 -0.051,-0.1427 -0.132,-0.2732 -0.236,-0.383 -0.104,-0.1099 -0.231,-0.1967 -0.371,-0.2549 -0.14,-0.0581 -0.29,-0.0864 -0.442,-0.0829 -0.153,-0.002 -0.306,0.0269 -0.448,0.0848 -0.143,0.058 -0.272,0.1438 -0.381,0.2526 -0.108,0.1087 -0.194,0.238 -0.252,0.3804 -0.058,0.1424 -0.087,0.295 -0.085,0.4487 z"
     fill="#000000"
     id="path42" />
  <path
     d="m 25.397,19.327468 c 0.0112,-0.8679 0.2418,-1.719 0.6702,-2.4739 0.4285,-0.7549 1.0409,-1.3892 1.7804,-1.8438 -0.4697,-0.6709 -1.0895,-1.223 -1.8099,-1.6125 -0.7205,-0.3895 -1.5219,-0.6056 -2.3405,-0.6312 -1.7462,-0.1833 -3.4391,1.0449 -4.329,1.0449 -0.907,0 -2.2771,-1.0267 -3.7524,-0.9964 -0.9543,0.0308 -1.8844,0.3083 -2.6995,0.8055 -0.8152,0.4971 -1.4876,1.1969 -1.9519,2.0312 -2.0111301,3.482 -0.511,8.5994 1.4155,11.414 0.9639,1.3782 2.0904,2.9177 3.5644,2.8632 1.4424,-0.0599 1.9811,-0.9198 3.7222,-0.9198 1.7249,0 2.2303,0.9198 3.7342,0.885 1.5478,-0.0251 2.523,-1.3843 3.453,-2.7756 0.6926,-0.982 1.2255,-2.0674 1.579,-3.2159 -0.8992,-0.3803 -1.6665,-1.0169 -2.2064,-1.8304 -0.5398,-0.8135 -0.8282,-1.7679 -0.8293,-2.7443 z"
     fill="#000000"
     id="path44" />
  <path
     d="m 22.5563,10.914968 c 0.844,-1.0131002 1.2597,-2.3152002 1.159,-3.6298802 -1.2893,0.13542 -2.4802,0.75162 -3.3355,1.72578 -0.4182,0.476 -0.7385,1.0296002 -0.9426,1.6294002 -0.204,0.5998 -0.2879,1.2339 -0.2467,1.8661 0.6448,0.0067 1.2828,-0.1331 1.8658,-0.4088 0.5831,-0.2756 1.0959,-0.68 1.5,-1.1826 z"
     fill="#000000"
     id="path46" />
  <path
     d="M 122.58887,-0.49368222 H 7.0901322 c -3.6949963,0 -6.69038471,3.15982402 -6.69038471,7.05766352 V 32.435416 c 0,3.89781 2.99538841,7.057664 6.69038471,7.057664 H 122.58887 c 3.69555,0 6.69077,-3.159854 6.69077,-7.057664 V 6.5639813 c 0,-3.8978395 -2.99522,-7.05766352 -6.69077,-7.05766352 z"
     stroke="#000000"
     stroke-width="0.799495"
     stroke-miterlimit="10"
     id="path48" />
</svg>
