<?xml version="1.0" encoding="UTF-8" standalone="no"?>
<!-- Generator: Adobe Illustrator 18.1.1, SVG Export Plug-In . SVG Version: 6.00 Build 0)  -->

<svg
   version="1.1"
   id="Capa_1"
   x="0px"
   y="0px"
   viewBox="0 0 64 63.999999"
   xml:space="preserve"
   sodipodi:docname="apple-darkmode.svg"
   inkscape:version="0.92.5 (2060ec1f9f, 2020-04-08)"
   width="64"
   height="64"
   inkscape:export-filename="apple-darkmode.svg"
   inkscape:export-xdpi="96"
   inkscape:export-ydpi="96"
   xmlns:inkscape="http://www.inkscape.org/namespaces/inkscape"
   xmlns:sodipodi="http://sodipodi.sourceforge.net/DTD/sodipodi-0.dtd"
   xmlns="http://www.w3.org/2000/svg"
   xmlns:svg="http://www.w3.org/2000/svg"
   xmlns:rdf="http://www.w3.org/1999/02/22-rdf-syntax-ns#"
   xmlns:cc="http://creativecommons.org/ns#"
   xmlns:dc="http://purl.org/dc/elements/1.1/"><metadata
   id="metadata43"><rdf:RDF><cc:Work
       rdf:about=""><dc:format>image/svg+xml</dc:format><dc:type
         rdf:resource="http://purl.org/dc/dcmitype/StillImage" /></cc:Work></rdf:RDF></metadata><defs
   id="defs41"><inkscape:path-effect
     effect="fillet_chamfer"
     id="path-effect330"
     is_visible="true"
     lpeversion="1"
     nodesatellites_param="F,0,0,1,0,10,0,1 @ F,0,0,1,0,10,0,1 @ F,0,0,1,0,10,0,1 @ F,0,0,1,0,10,0,1"
     unit="px"
     method="auto"
     mode="F"
     radius="10"
     chamfer_steps="1"
     flexible="false"
     use_knot_distance="true"
     apply_no_radius="true"
     apply_with_radius="true"
     only_selected="false"
     hide_knots="false" /></defs><sodipodi:namedview
   pagecolor="#ffffff"
   bordercolor="#666666"
   borderopacity="1"
   objecttolerance="10"
   gridtolerance="10"
   guidetolerance="10"
   inkscape:pageopacity="0"
   inkscape:pageshadow="2"
   inkscape:window-width="1600"
   inkscape:window-height="836"
   id="namedview39"
   showgrid="false"
   inkscape:zoom="3.0226996"
   inkscape:cx="-12.763402"
   inkscape:cy="48.701323"
   inkscape:window-x="0"
   inkscape:window-y="27"
   inkscape:window-maximized="1"
   inkscape:current-layer="Capa_1"
   fit-margin-top="0"
   fit-margin-left="0"
   fit-margin-right="0"
   fit-margin-bottom="0"
   inkscape:showpageshadow="0"
   inkscape:pagecheckerboard="0"
   inkscape:deskcolor="#d1d1d1"><inkscape:grid
     type="xygrid"
     id="grid850"
     originx="-5.4332076e-08"
     originy="-0.00015560413" /></sodipodi:namedview>

		<path
   style="fill:#ffffff"
   id="rect168"
   width="64"
   height="64"
   x="1.2171334e-15"
   y="2.6311857e-15"
   inkscape:label="rect168"
   inkscape:path-effect="#path-effect330"
   d="M 10,0 H 54 A 10,10 45 0 1 64,10 V 54 A 10,10 135 0 1 54,64 H 10 A 10,10 45 0 1 0,54 V 10 A 10,10 135 0 1 10,0 Z"
   sodipodi:type="rect" /><path
   style="fill:#030104;stroke-width:4.56403"
   d="m 49.522882,33.94096 c -0.08347,-7.856775 6.61245,-11.616708 6.909222,-11.805378 -3.760657,-5.323202 -9.612629,-6.055423 -11.703944,-6.136281 -4.975567,-0.494138 -9.719281,2.83904 -12.251116,2.83904 -2.522562,0 -6.426968,-2.771659 -10.558589,-2.699785 -5.434637,0.08086 -10.438026,3.063649 -13.2388108,7.771426 -5.643304,9.487428 -1.4467632,23.538884 4.0527918,31.242927 2.689495,3.764425 5.898342,7.991541 10.104157,7.8433 4.052792,-0.157225 5.583022,-2.542559 10.484396,-2.542559 4.901374,0 6.278581,2.542559 10.563226,2.466193 4.363475,-0.08086 7.122527,-3.840792 9.788837,-7.614201 3.088283,-4.370865 4.358838,-8.606966 4.437668,-8.818097 -0.102015,-0.0539 -8.499734,-3.166968 -8.587838,-12.546585 z M 41.463669,10.900706 C 43.694096,8.2817808 45.205778,4.6341523 44.793079,1 c -3.222757,0.1257806 -7.113252,2.0708823 -9.427146,4.6943 -2.072766,2.3224434 -3.876583,6.02847 -3.394329,9.590748 3.589086,0.274021 7.261638,-1.769909 9.492065,-4.384342 z"
   id="path2"
   inkscape:connector-curvature="0" />
</svg>
