<?xml version="1.0" encoding="UTF-8" standalone="no"?>
<svg
   width="140"
   height="44"
   viewBox="0 0 140 44"
   fill="none"
   version="1.1"
   id="svg2944"
   sodipodi:docname="browser-play.svg"
   inkscape:version="1.2.1 (9c6d41e4, 2022-07-14)"
   xmlns:inkscape="http://www.inkscape.org/namespaces/inkscape"
   xmlns:sodipodi="http://sodipodi.sourceforge.net/DTD/sodipodi-0.dtd"
   xmlns="http://www.w3.org/2000/svg"
   xmlns:svg="http://www.w3.org/2000/svg">
  <defs
     id="defs2948" />
  <sodipodi:namedview
     id="namedview2946"
     pagecolor="#ffffff"
     bordercolor="#999999"
     borderopacity="1"
     inkscape:showpageshadow="0"
     inkscape:pageopacity="0"
     inkscape:pagecheckerboard="0"
     inkscape:deskcolor="#d1d1d1"
     showgrid="false"
     inkscape:zoom="11"
     inkscape:cx="62.000001"
     inkscape:cy="17.318182"
     inkscape:window-width="1920"
     inkscape:window-height="607"
     inkscape:window-x="165"
     inkscape:window-y="28"
     inkscape:window-maximized="0"
     inkscape:current-layer="svg2944" />
  <path
     d="M 7.2311956,20.753454 C 7.2475666,13.412164 13.148241,7.5049263 20.414371,7.5215108 27.707935,7.5380953 33.575756,13.483918 33.54832,20.803096 33.520885,28.133442 27.592774,34.040681 20.337596,33.996569 13.066047,33.957871 7.2311956,28.039688 7.2256633,20.753454 Z m 1.3051643,0.656385 c 0.06571,1.169377 0.2906135,2.294527 0.6799046,3.386622 0.3894041,1.092094 0.9268245,2.106908 1.6013105,3.017024 0.553904,-0.319843 1.085792,-0.6398 1.639696,-0.926588 0.548373,-0.286788 1.118761,-0.529576 1.689036,-0.799779 -0.520936,-1.505804 -0.822614,-3.072193 -0.893856,-4.682807 H 8.5417792 Z m 21.4254671,6.431287 c 1.387472,-1.925042 2.155215,-4.059591 2.29228,-6.431287 h -4.53522 c -0.07124,1.638142 -0.37834,3.226643 -0.921293,4.771033 1.113229,0.446765 2.155215,0.99834 3.158814,1.660254 z M 13.246918,20.102597 c 0.0604,-1.500163 0.329114,-2.950798 0.773277,-4.346264 -0.58676,-0.28126 -1.17352,-0.54052 -1.732956,-0.838364 -0.559324,-0.297844 -1.096745,-0.6398 -1.656069,-0.965285 -1.2613567,1.842233 -1.9632776,3.894085 -2.0948101,6.149913 z m 13.660418,-4.428961 c 0.47713,1.450522 0.75126,2.917742 0.817083,4.423546 h 4.535221 c -0.137179,-2.26147 -0.839099,-4.313322 -2.111296,-6.166498 -1.025503,0.700498 -2.094924,1.274073 -3.241008,1.742952 z M 25.59664,25.745161 c 0.493615,-1.41205 0.778695,-2.85163 0.844518,-4.335322 h -5.390577 v 3.5466 c 1.54644,0.06611 3.059911,0.319845 4.546059,0.788722 z m -5.845803,-4.335322 h -5.215125 c 0.07124,1.472636 0.350904,2.895743 0.833566,4.280154 1.436697,-0.441238 2.889991,-0.678385 4.381559,-0.739082 z m 1.299744,-4.478715 v 3.166058 h 5.379625 c 0.06582,-0.706025 -0.466065,-3.541071 -0.745839,-3.982309 -1.50252,0.485351 -3.04354,0.750139 -4.633786,0.816251 z m -6.514869,3.166058 h 5.215125 v -3.166058 c -1.535487,-0.06611 -3.032588,-0.319845 -4.507785,-0.777667 -0.411194,1.28513 -0.64705,2.592371 -0.70734,3.943725 z m 6.514869,-4.46766 c 0.943196,0.02753 3.718025,-0.468877 4.189623,-0.750137 -0.976164,-2.311112 -2.407441,-4.296738 -4.1623,-6.0616888 l -0.02732,0.011056 z M 19.750837,8.8838086 c -1.727424,1.7870634 -3.120314,3.7617464 -4.063509,6.0561604 1.327067,0.408182 2.676151,0.639913 4.063509,0.700497 V 8.8893367 Z m 1.305164,17.3688164 v 6.442229 c 0.04934,-0.02764 0.08231,-0.03858 0.109742,-0.0607 1.645117,-1.665669 2.9942,-3.530015 3.95388,-5.681148 -0.663646,-0.303259 -3.197201,-0.739082 -4.063622,-0.700384 z m -1.310584,6.326363 v -6.331891 c -1.3326,0.05517 -2.626812,0.270203 -3.904541,0.650857 0.948728,2.145491 2.281215,4.004309 3.904541,5.681034 z M 11.437301,12.91023 c 0.95968,0.645328 1.963166,1.180432 3.032588,1.610613 0.81155,-1.996682 1.946794,-3.778218 3.350637,-5.4274155 -2.550038,0.595688 -4.655801,1.8698735 -6.383225,3.8168025 z m 15.014809,1.555445 c 1.025503,-0.419238 1.979763,-0.932117 2.895523,-1.555445 -0.822615,-0.948701 -1.760278,-1.742952 -2.818748,-2.382752 -1.02539,-0.6176872 -2.99962,-1.4064096 -3.389024,-1.3678253 1.370987,1.5940293 2.495166,3.3479233 3.317781,5.3060223 z m -8.631584,17.947807 c -1.305164,-1.544276 -2.39649,-3.221115 -3.20804,-5.090876 -1.041986,0.408182 -2.023569,0.910117 -2.966765,1.522277 1.705407,1.82576 3.75088,3.022552 6.169273,3.568599 z m 8.505471,-5.030179 c -0.800599,1.831176 -1.87544,3.474847 -3.180604,5.002651 2.363521,-0.59016 4.343171,-1.770479 5.9884,-3.535543 -0.899389,-0.584632 -1.826101,-1.069982 -2.807796,-1.461579 z"
     fill="#000000"
     id="path2902"
     style="stroke-width:1.12861" />
  <path
     d="M 44.829748,9.6227775 V 14.11255 c 0,0.744609 -0.241274,1.323713 -0.718404,1.742951 -0.482549,0.419125 -1.096745,0.628744 -1.853536,0.628744 -0.756793,0 -1.327069,-0.209619 -1.793247,-0.628744 C 39.998382,15.436263 39.76806,14.857159 39.76806,14.118078 V 9.6283057 h 0.910341 v 4.4897723 c 0,0.518406 0.148129,0.92106 0.438743,1.213375 0.290613,0.292316 0.674484,0.441238 1.135132,0.441238 0.493613,0 0.893856,-0.148922 1.200953,-0.441238 0.307098,-0.292315 0.466179,-0.694969 0.466179,-1.213375 V 9.6283057 h 0.91034 z"
     fill="#000000"
     id="path2904"
     style="stroke-width:1.12861" />
  <path
     d="m 49.046581,15.027856 c 0,-0.198563 -0.07677,-0.36407 -0.230323,-0.490879 -0.153549,-0.126923 -0.43863,-0.237147 -0.866421,-0.336429 -0.58676,-0.126922 -1.041987,-0.303372 -1.354504,-0.535103 -0.312629,-0.231619 -0.471598,-0.534991 -0.471598,-0.92106 0,-0.408182 0.175453,-0.761195 0.520938,-1.047982 0.345483,-0.286788 0.795178,-0.43571 1.343551,-0.43571 0.548372,0 1.025502,0.15445 1.376406,0.46335 0.351017,0.308789 0.52105,0.667329 0.504566,1.081039 l -0.01095,0.02753 h -0.866421 c 0,-0.215034 -0.09326,-0.413597 -0.285195,-0.59016 -0.186516,-0.17645 -0.427791,-0.264788 -0.718404,-0.264788 -0.318049,0 -0.559325,0.07176 -0.718405,0.220676 -0.158968,0.148922 -0.235743,0.319956 -0.235743,0.518519 0,0.198563 0.06571,0.3529 0.202888,0.457709 0.137064,0.110338 0.416727,0.209619 0.844518,0.297845 0.614195,0.13245 1.074841,0.314428 1.39289,0.551575 0.31805,0.237147 0.47713,0.551575 0.47713,0.932116 0,0.446766 -0.180984,0.810836 -0.53742,1.092094 -0.356552,0.281372 -0.828149,0.424766 -1.403957,0.424766 -0.636099,0 -1.140664,-0.159979 -1.50252,-0.485351 -0.367501,-0.325485 -0.53742,-0.706025 -0.521049,-1.136206 l 0.01106,-0.02764 h 0.866422 c 0.01648,0.325484 0.137064,0.562631 0.361968,0.711553 0.224791,0.148922 0.487969,0.226091 0.789647,0.226091 0.323581,0 0.575808,-0.06611 0.756792,-0.204091 0.180985,-0.137865 0.27413,-0.314315 0.27413,-0.529462 z"
     fill="#000000"
     id="path2906"
     style="stroke-width:1.12861" />
  <path
     d="m 53.153445,16.47883 c -0.718405,0 -1.277728,-0.231732 -1.678084,-0.689442 -0.400356,-0.46335 -0.603244,-1.070095 -0.603244,-1.820232 v -0.204091 c 0,-0.722498 0.20842,-1.318186 0.619728,-1.787064 0.411194,-0.474295 0.921292,-0.705913 1.513471,-0.705913 0.669066,0 1.168099,0.209506 1.502633,0.628744 0.334532,0.419238 0.499033,0.970701 0.499033,1.66567 v 0.485464 h -3.191669 l -0.01095,0.022 c 0,0.501935 0.109743,0.915644 0.334533,1.22996 0.219372,0.314429 0.559324,0.468879 1.014551,0.468879 0.307097,0 0.575808,-0.04412 0.81155,-0.132338 0.230324,-0.08833 0.433211,-0.209618 0.597825,-0.364069 l 0.356435,0.595688 c -0.180984,0.171035 -0.411306,0.319957 -0.707453,0.43571 -0.290613,0.121393 -0.64705,0.176562 -1.058357,0.176562 z m -0.142597,-4.495301 c -0.31805,0 -0.58134,0.121394 -0.789647,0.369597 -0.20842,0.248204 -0.334533,0.562632 -0.378453,0.943173 l 0.01095,0.022 h 2.253893 v -0.07164 c 0,-0.364069 -0.08773,-0.667441 -0.268711,-0.904588 -0.180984,-0.237147 -0.455114,-0.358541 -0.828034,-0.358541 z"
     fill="#000000"
     id="path2908"
     style="stroke-width:1.12861" />
  <path
     d="M 59.367089,10.069543 H 58.456748 V 9.1374272 h 0.910341 z m 0,6.309892 h -0.910341 v -5.024763 h 0.910341 z"
     fill="#000000"
     id="path2910"
     style="stroke-width:1.12861" />
  <path
     d="m 61.57819,11.360425 0.06582,0.744611 c 0.1645,-0.264788 0.37292,-0.474407 0.625146,-0.6178 0.252227,-0.148923 0.537422,-0.220676 0.85547,-0.220676 0.53742,0 0.95426,0.159978 1.250406,0.474407 0.296033,0.314428 0.444162,0.805306 0.444162,1.467106 v 3.171475 h -0.91034 v -3.149361 c 0,-0.441238 -0.08773,-0.755666 -0.263179,-0.943173 -0.175564,-0.187507 -0.438743,-0.275844 -0.795178,-0.275844 -0.279662,0 -0.515518,0.05517 -0.712986,0.171034 -0.197355,0.110338 -0.350904,0.270317 -0.466066,0.474295 v 3.728577 h -0.91034 v -5.024651 h 0.81155 z"
     fill="#000000"
     id="path2912"
     style="stroke-width:1.12861" />
  <path
     d="m 70.018403,14.520393 0.159081,0.628743 h 0.02732 l 1.22839,-3.794689 h 1.009132 l -2.100343,5.791373 c -0.126114,0.336428 -0.307098,0.628743 -0.542953,0.882475 -0.235743,0.253731 -0.553905,0.375125 -0.954148,0.375125 -0.07135,0 -0.170032,-0.01105 -0.279661,-0.02764 -0.115163,-0.01647 -0.203001,-0.03306 -0.263292,-0.04964 l 0.09326,-0.716969 c 0,0 0.03839,0 0.164501,0.01094 0.126113,0.01105 0.20842,0.01659 0.241274,0.01659 0.191937,0 0.351018,-0.08822 0.47713,-0.25926 0.120582,-0.170921 0.224792,-0.363956 0.307098,-0.573575 l 0.219372,-0.524047 -1.853537,-4.919841 h 1.014438 z"
     fill="#000000"
     id="path2914"
     style="stroke-width:1.12861" />
  <path
     d="m 72.963265,13.819895 c 0,-0.74461 0.197468,-1.35677 0.59771,-1.836705 0.400356,-0.479821 0.943309,-0.722497 1.628746,-0.722497 0.685437,0 1.239342,0.242676 1.639698,0.716969 0.400356,0.479935 0.603243,1.092095 0.603243,1.836704 v 0.104811 c 0,0.750137 -0.197468,1.36241 -0.597824,1.836704 -0.400243,0.474407 -0.943196,0.717082 -1.634165,0.717082 -0.69097,0 -1.233809,-0.237148 -1.634165,-0.717082 -0.400356,-0.479822 -0.603243,-1.092095 -0.603243,-1.836704 v -0.104811 z m 0.91034,0.10481 c 0,0.534991 0.10963,0.970813 0.334534,1.318298 0.22479,0.347484 0.553791,0.518406 0.992534,0.518406 0.438743,0 0.762325,-0.170922 0.987115,-0.518406 0.224791,-0.347485 0.334533,-0.783307 0.334533,-1.318298 v -0.10481 c 0,-0.523935 -0.115161,-0.965172 -0.340065,-1.312657 -0.224791,-0.347484 -0.559324,-0.524048 -0.992535,-0.524048 -0.43321,0 -0.762211,0.176564 -0.987115,0.524048 -0.224791,0.347485 -0.334533,0.788722 -0.334533,1.312657 v 0.10481 z"
     fill="#000000"
     id="path2916"
     style="stroke-width:1.12861" />
  <path
     d="m 81.715204,15.640353 c -0.159082,0.270203 -0.356436,0.474294 -0.603244,0.623217 -0.246806,0.143394 -0.531888,0.220675 -0.85547,0.220675 -0.542952,0 -0.970631,-0.176563 -1.272308,-0.524047 -0.307098,-0.347485 -0.455114,-0.893533 -0.455114,-1.632615 v -2.961854 h 0.910341 v 2.972911 c 0,0.534991 0.07677,0.904588 0.235742,1.10315 0.159081,0.198563 0.400356,0.303373 0.734889,0.303373 0.334533,0 0.592291,-0.06622 0.800599,-0.198675 0.208419,-0.132338 0.3675,-0.319844 0.47713,-0.556992 v -3.61824 h 0.91034 v 5.024651 h -0.817082 l -0.06029,-0.74461 z"
     fill="#000000"
     id="path2918"
     style="stroke-width:1.12861" />
  <path
     d="m 86.277633,12.16562 -0.466178,-0.02753 c -0.241274,0 -0.444162,0.05517 -0.608662,0.170922 -0.164614,0.115865 -0.290727,0.275844 -0.378453,0.485463 v 3.590599 h -0.910341 v -5.024651 h 0.811664 l 0.08773,0.733554 c 0.142597,-0.259259 0.31805,-0.46335 0.526469,-0.606743 0.208421,-0.143394 0.444163,-0.220676 0.718405,-0.220676 0.06582,0 0.131533,0 0.191936,0.01659 0.06029,0.01105 0.109629,0.02211 0.153549,0.03306 z"
     fill="#000000"
     id="path2920"
     style="stroke-width:1.12861" />
  <path
     d="m 49.162532,28.513982 h 0.04934 l 1.513584,-7.804527 h 2.363521 l -2.670619,11.500049 h -2.127779 l -2.105762,-7.573022 h -0.04934 l -2.094923,7.573022 H 41.912887 L 39.242156,20.709455 h 2.363634 l 1.524423,7.793584 h 0.04945 l 2.056423,-7.793584 h 1.853537 z"
     fill="#000000"
     id="path2922"
     style="stroke-width:1.12861" />
  <path
     d="m 57.574294,32.3802 c -1.266777,0 -2.253893,-0.391597 -2.966765,-1.174791 -0.712986,-0.783194 -1.069422,-1.787063 -1.069422,-3.022553 v -0.314428 c 0,-1.2796 0.345485,-2.327582 1.036455,-3.143833 0.690968,-0.816364 1.639696,-1.219017 2.851602,-1.219017 1.140665,0 2.01815,0.353013 2.626813,1.053511 0.608776,0.700497 0.915873,1.649197 0.915873,2.840573 v 1.191376 h -5.067108 l -0.02202,0.04964 c 0.03839,0.584631 0.213951,1.058925 0.532001,1.422995 0.318049,0.364069 0.784115,0.546047 1.409374,0.546047 0.515404,0 0.948615,-0.05517 1.305164,-0.159978 0.356437,-0.10481 0.729357,-0.264675 1.113229,-0.479823 l 0.619618,1.422993 c -0.339953,0.281373 -0.800599,0.512992 -1.381939,0.700498 -0.581226,0.187506 -1.211906,0.286787 -1.902875,0.286787 z m -0.14813,-7.093087 c -0.460646,0 -0.817082,0.159979 -1.063776,0.479936 -0.246807,0.319843 -0.400356,0.739082 -0.449694,1.268545 l 0.01637,0.03858 h 2.796844 v -0.170921 c 0,-0.501935 -0.104209,-0.893533 -0.307098,-1.180432 -0.202887,-0.286788 -0.532001,-0.430182 -0.987114,-0.430182 z"
     fill="#000000"
     id="path2924"
     style="stroke-width:1.12861" />
  <path
     d="m 69.963419,28.177328 c 0,1.274073 -0.285082,2.294527 -0.849937,3.055722 -0.564856,0.761081 -1.381939,1.14715 -2.451361,1.14715 -0.499033,0 -0.932244,-0.104696 -1.299632,-0.314315 -0.367387,-0.20962 -0.680017,-0.51852 -0.937776,-0.926701 l -0.186404,1.075623 H 62.296933 V 19.892866 h 2.286861 v 4.682807 c 0.246694,-0.341957 0.54284,-0.606744 0.882905,-0.788723 0.339952,-0.182091 0.734776,-0.275843 1.179051,-0.275843 1.080261,0 1.902876,0.408181 2.467732,1.22996 0.564855,0.816362 0.849937,1.908458 0.849937,3.276283 v 0.165506 z m -2.286747,-0.165506 c 0,-0.832834 -0.120694,-1.489219 -0.367388,-1.980098 -0.241275,-0.48535 -0.658115,-0.728026 -1.244874,-0.728026 -0.356436,0 -0.658115,0.07717 -0.904808,0.226091 -0.246808,0.148922 -0.438743,0.364069 -0.58134,0.645329 v 3.618353 c 0.142597,0.259147 0.334532,0.457709 0.586759,0.59016 0.246807,0.137865 0.553904,0.204091 0.915873,0.204091 0.592178,0 1.003486,-0.20962 1.239342,-0.628858 0.235742,-0.419125 0.350904,-1.009284 0.350904,-1.781536 v -0.165506 z"
     fill="#000000"
     id="path2926"
     style="stroke-width:1.12861" />
  <path
     d="m 75.556545,32.214807 v -11.50005 h 3.74546 c 1.343551,0 2.396489,0.264788 3.147748,0.794251 0.751373,0.529463 1.129713,1.31277 1.129713,2.355224 0,0.529463 -0.137064,0.998341 -0.405775,1.411939 -0.274242,0.413709 -0.669066,0.728137 -1.195535,0.937643 0.712873,0.132451 1.250293,0.441239 1.612262,0.93223 0.361968,0.490879 0.542952,1.058925 0.542952,1.71531 0,1.103151 -0.361967,1.935986 -1.085792,2.498618 -0.723937,0.568047 -1.743907,0.84942 -3.071088,0.84942 h -4.419945 z m 2.292279,-6.679377 h 1.529955 c 0.614195,0 1.085793,-0.126809 1.414907,-0.380541 0.329,-0.253732 0.493501,-0.623329 0.493501,-1.103151 0,-0.529463 -0.164501,-0.926588 -0.499033,-1.174791 -0.334534,-0.253732 -0.828035,-0.380654 -1.486149,-0.380654 h -1.453181 z m 0,1.594029 v 3.314869 h 2.127666 c 0.608776,0 1.069422,-0.132338 1.387471,-0.397126 0.31805,-0.264788 0.47713,-0.661913 0.47713,-1.180319 0,-0.557104 -0.15908,-0.987285 -0.471598,-1.28513 -0.31263,-0.297843 -0.78976,-0.452294 -1.420325,-0.452294 h -2.105876 z"
     fill="#000000"
     id="path2928"
     style="stroke-width:1.12861" />
  <path
     d="m 90.100094,25.651409 -0.838986,-0.02211 c -0.340065,0 -0.619727,0.07176 -0.839099,0.215147 -0.219371,0.143394 -0.389291,0.341957 -0.504452,0.601217 v 5.774788 h -2.28686 v -8.543722 h 2.127779 l 0.10421,1.263129 c 0.197468,-0.446767 0.455114,-0.794251 0.773276,-1.047982 0.318048,-0.248204 0.679904,-0.375013 1.096744,-0.375013 0.115161,0 0.219372,0.01094 0.318049,0.02753 0.09868,0.01659 0.197468,0.03858 0.296146,0.06622 l -0.241275,2.046211 z"
     fill="#000000"
     id="path2930"
     style="stroke-width:1.12861" />
  <path
     d="m 90.779773,27.862674 c 0,-1.274072 0.350904,-2.316526 1.058357,-3.132777 0.707454,-0.816362 1.683617,-1.219016 2.93933,-1.219016 1.255825,0 2.24294,0.402654 2.950393,1.219016 0.707454,0.816251 1.069309,1.858705 1.069309,3.132777 v 0.165507 c 0,1.285129 -0.356436,2.333111 -1.06389,3.138418 -0.707339,0.810723 -1.689035,1.213376 -2.939328,1.213376 -1.250294,0 -2.237409,-0.402653 -2.950281,-1.213376 -0.707454,-0.810835 -1.06389,-1.853289 -1.06389,-3.138418 z m 2.286747,0.165507 c 0,0.777666 0.137065,1.406523 0.405776,1.875288 0.274241,0.468879 0.712984,0.706027 1.321648,0.706027 0.608775,0 1.025502,-0.237148 1.299745,-0.711555 0.274129,-0.474293 0.411194,-1.097509 0.411194,-1.86976 v -0.165507 c 0,-0.755553 -0.137065,-1.378882 -0.416727,-1.853175 -0.279662,-0.474407 -0.712873,-0.717082 -1.310696,-0.717082 -0.597712,0 -1.02539,0.242675 -1.299632,0.72261 -0.274243,0.479821 -0.411308,1.097622 -0.411308,1.853175 v 0.165507 z"
     fill="#000000"
     id="path2932"
     style="stroke-width:1.12861" />
  <path
     d="m 107.60477,29.037804 h 0.0485 l 1.03193,-5.372248 h 2.23097 l -2.15984,8.543723 h -1.91372 l -1.57985,-4.931011 h -0.0493 l -1.57941,4.931011 h -1.90841 L 99.565009,23.665556 H 101.797 l 1.04188,5.344608 h 0.0495 l 1.58482,-5.344608 h 1.52995 z"
     fill="#000000"
     id="path2934"
     style="stroke-width:1.12861" />
  <path
     d="m 116.64156,29.842885 c 0,-0.253731 -0.11968,-0.468878 -0.36693,-0.650856 -0.24162,-0.182091 -0.69663,-0.341957 -1.35485,-0.479936 -0.99242,-0.198562 -1.74887,-0.501934 -2.26484,-0.910003 -0.51484,-0.402654 -0.77339,-0.954228 -0.77339,-1.649198 0,-0.733553 0.3071,-1.356882 0.92694,-1.86976 0.61984,-0.512991 1.43725,-0.772251 2.46806,-0.772251 1.03082,0 1.93066,0.25926 2.57759,0.772251 0.64694,0.518406 0.95403,1.158206 0.93258,1.924929 l -0.0169,0.04964 h -2.21516 c 0,-0.341957 -0.10952,-0.62333 -0.32968,-0.838363 -0.21903,-0.215148 -0.53743,-0.325485 -0.9484,-0.325485 -0.36693,0 -0.65822,0.09375 -0.87161,0.275843 -0.21452,0.181979 -0.32403,0.408069 -0.32403,0.678386 0,0.270316 0.10951,0.479822 0.33419,0.645328 0.22581,0.165507 0.67516,0.314428 1.35484,0.446766 1.04211,0.209619 1.81549,0.518519 2.33033,0.926588 0.51597,0.408182 0.76774,0.970813 0.76774,1.687783 0,0.766723 -0.32855,1.395466 -0.98113,1.886345 -0.65258,0.490878 -1.51854,0.733667 -2.59339,0.733667 -1.13016,0 -2.02436,-0.286901 -2.68258,-0.866004 -0.6571,-0.579104 -0.96984,-1.235489 -0.9371,-1.969042 l 0.0158,-0.04964 h 2.09548 c 0.0158,0.45771 0.16484,0.788723 0.44935,0.992813 0.28565,0.204091 0.65259,0.308788 1.10759,0.308788 0.42225,0 0.7463,-0.08823 0.97097,-0.259147 0.22468,-0.171035 0.3342,-0.402654 0.3342,-0.700498 z"
     fill="#000000"
     id="path2936"
     style="stroke-width:1.12861" />
  <path
     d="m 124.02318,32.3802 c -1.26677,0 -2.25354,-0.391597 -2.96709,-1.174904 -0.71242,-0.783194 -1.06921,-1.787063 -1.06921,-3.022553 v -0.314315 c 0,-1.279713 0.3455,-2.327695 1.03647,-3.143946 0.69096,-0.816363 1.63935,-1.219016 2.85193,-1.219016 1.14033,0 2.01759,0.353012 2.62614,1.05351 0.60855,0.700497 0.91564,1.649197 0.91564,2.840573 v 1.191376 h -5.0671 l -0.0215,0.04964 c 0.0384,0.584632 0.21338,1.059038 0.53177,1.422995 0.31839,0.364069 0.78468,0.546047 1.40903,0.546047 0.51598,0 0.94953,-0.05506 1.30517,-0.159865 0.35678,-0.10481 0.72936,-0.264788 1.11323,-0.479935 l 0.61984,1.423107 c -0.33984,0.28126 -0.80049,0.512879 -1.38194,0.700498 -0.58145,0.187506 -1.21145,0.286787 -1.90243,0.286787 z m -0.1479,-7.093087 c -0.46064,0 -0.81742,0.159866 -1.06468,0.479823 -0.24613,0.319956 -0.39967,0.739082 -0.44935,1.268545 l 0.0169,0.03869 h 2.79663 v -0.171034 c 0,-0.501934 -0.10387,-0.893531 -0.3071,-1.180319 -0.20323,-0.286788 -0.53178,-0.430295 -0.98678,-0.430295 z"
     fill="#000000"
     id="path2938"
     style="stroke-width:1.12861" />
  <path
     d="m 133.21917,25.651409 -0.83887,-0.02211 c -0.33984,0 -0.61984,0.07176 -0.83887,0.215147 -0.21903,0.143394 -0.38952,0.341957 -0.50468,0.601217 v 5.774788 h -2.2863 v -8.543722 h 2.12711 l 0.105,1.263129 c 0.19645,-0.446767 0.455,-0.794251 0.77226,-1.047982 0.31838,-0.248204 0.6808,-0.375013 1.09742,-0.375013 0.11516,0 0.21903,0.01094 0.31838,0.02753 0.0982,0.01659 0.19646,0.03858 0.29582,0.06622 l -0.24162,2.046211 z"
     fill="#000000"
     id="path2940"
     style="stroke-width:1.12861" />
  <path
     d="M 132.34532,0.43140301 H 7.6542628 c -3.989074,0 -7.22285979,3.40877669 -7.22285979,7.61371479 V 35.954883 c 0,4.204905 3.23378579,7.613714 7.22285979,7.613714 H 132.34532 c 3.98969,0 7.22328,-3.408809 7.22328,-7.613714 V 8.0451178 c 0,-4.2049381 -3.23359,-7.61371479 -7.22328,-7.61371479 z"
     stroke="#000000"
     stroke-width="0.862806"
     stroke-miterlimit="10"
     id="path2942" />
</svg>
