<?xml version="1.0" encoding="UTF-8" standalone="no"?>
<svg
   width="124"
   height="39"
   viewBox="0 0 124 39"
   fill="none"
   version="1.1"
   id="svg2944"
   sodipodi:docname="browser-play.svg"
   inkscape:version="1.2.1 (9c6d41e4, 2022-07-14)"
   xmlns:inkscape="http://www.inkscape.org/namespaces/inkscape"
   xmlns:sodipodi="http://sodipodi.sourceforge.net/DTD/sodipodi-0.dtd"
   xmlns="http://www.w3.org/2000/svg"
   xmlns:svg="http://www.w3.org/2000/svg">
  <defs
     id="defs2948" />
  <sodipodi:namedview
     id="namedview2946"
     pagecolor="#ffffff"
     bordercolor="#999999"
     borderopacity="1"
     inkscape:showpageshadow="0"
     inkscape:pageopacity="0"
     inkscape:pagecheckerboard="0"
     inkscape:deskcolor="#d1d1d1"
     showgrid="false"
     inkscape:zoom="11"
     inkscape:cx="62.000001"
     inkscape:cy="19.5"
     inkscape:window-width="1920"
     inkscape:window-height="607"
     inkscape:window-x="165"
     inkscape:window-y="28"
     inkscape:window-maximized="0"
     inkscape:current-layer="svg2944" />
  <path
     d="M 6.4049001,18.3951 C 6.4194001,11.888 11.6457,6.6520001 18.0814,6.6667001 24.5414,6.6814001 29.7386,11.9516 29.7143,18.4391 29.69,24.9365 24.4394,30.1725 18.0134,30.1334 11.5729,30.0991 6.4049001,24.8534 6.4000001,18.3951 Z m 1.156,0.5818 c 0.0582,1.0365 0.2574,2.0338 0.6021999,3.0018 0.3449,0.968 0.8209,1.8675 1.4183,2.6742 0.4906,-0.2835 0.9617,-0.5671 1.4523,-0.8213 0.4857,-0.2542 0.9909,-0.4694 1.496,-0.7089 C 12.0683,21.788 11.8011,20.3996 11.738,18.972 H 7.5657001 Z M 26.5377,24.6774 c 1.2289,-1.7063 1.9089,-3.5983 2.0303,-5.7005 h -4.0169 c -0.0631,1.452 -0.3351,2.86 -0.816,4.2289 0.986,0.396 1.9089,0.8849 2.7978,1.4716 z M 11.7331,17.8182 C 11.7866,16.4885 12.0246,15.2027 12.418,13.9658 11.8983,13.7165 11.3786,13.4867 10.8831,13.2227 10.3877,12.9587 9.9117,12.6556 9.4163,12.3671 8.2991,14 7.6774001,15.8187 7.5609001,17.8182 Z m 12.0992,-3.9257 c 0.4226,1.2857 0.6654,2.5862 0.7237,3.9209 h 4.0169 c -0.1215,-2.0045 -0.7432,-3.8232 -1.87,-5.4658 -0.9083,0.6209 -1.8555,1.1293 -2.8706,1.5449 z m -1.1609,8.9271 c 0.4372,-1.2516 0.6897,-2.5276 0.748,-3.8427 h -4.7745 v 3.1436 c 1.3697,0.0586 2.7102,0.2835 4.0265,0.6991 z m -5.1777,-3.8427 h -4.6191 c 0.0631,1.3053 0.3108,2.5667 0.7383,3.7938 1.2725,-0.3911 2.5597,-0.6013 3.8808,-0.6551 z m 1.1512,-3.9698 v 2.8063 h 4.7648 c 0.0583,-0.6258 -0.4128,-3.1387 -0.6606,-3.5298 -1.3308,0.4302 -2.6957,0.6649 -4.1042,0.7235 z m -5.7703,2.8063 h 4.6191 v -2.8063 c -1.36,-0.0586 -2.686,-0.2835 -3.9926,-0.6893 -0.3642,1.1391 -0.5731,2.2978 -0.6265,3.4956 z m 5.7703,-3.96 c 0.8354,0.0244 3.2931,-0.4156 3.7108,-0.6649 C 21.4911,11.14 20.2234,9.3800001 18.6691,7.8156001 l -0.0242,0.0098 z M 17.4937,7.8742001 c -1.53,1.584 -2.7637,3.3342999 -3.5991,5.3679999 1.1754,0.3618 2.3703,0.5672 3.5991,0.6209 V 7.8791001 Z M 18.6497,23.2694 v 5.7102 c 0.0437,-0.0245 0.0729,-0.0342 0.0972,-0.0538 1.4571,-1.4764 2.652,-3.1289 3.502,-5.0356 -0.5878,-0.2688 -2.8318,-0.6551 -3.5992,-0.6208 z m -1.1608,5.6075 v -5.6124 c -1.1803,0.0489 -2.3266,0.2395 -3.4583,0.5769 0.8403,1.9017 2.0205,3.5493 3.4583,5.0355 z M 10.1303,11.4431 c 0.85,0.572 1.7388,1.0463 2.686,1.4276 0.7188,-1.7698 1.7243,-3.3488999 2.9677,-4.8106999 -2.2586,0.528 -4.1237,1.6574 -5.6537,3.3830999 z m 13.2988,1.3787 c 0.9083,-0.3716 1.7535,-0.8262 2.5646,-1.3787 -0.7286,-0.8409 -1.5591,-1.5448999 -2.4966,-2.1119999 -0.9082,-0.5475 -2.6568,-1.2466 -3.0017,-1.2124 1.2143,1.4129 2.21,2.9674999 2.9386,4.7030999 z M 15.784,28.7302 c -1.156,-1.3688 -2.1226,-2.8551 -2.8414,-4.5124 -0.9229,0.3618 -1.7923,0.8067 -2.6277,1.3493 1.5105,1.6183 3.3222,2.6791 5.4642,3.1631 z m 7.5334,-4.4586 c -0.7091,1.6231 -1.6611,3.08 -2.8171,4.4342 2.0934,-0.5231 3.8468,-1.5693 5.304,-3.1338 -0.7966,-0.5182 -1.6174,-0.9484 -2.4869,-1.2955 z"
     fill="#000000"
     id="path2902" />
  <path
     d="M 39.7064,8.5292001 V 12.5088 c 0,0.66 -0.2137,1.1733 -0.6363,1.5449 -0.4274,0.3715 -0.9714,0.5573 -1.6417,0.5573 -0.6703,0 -1.1754,-0.1858 -1.5883,-0.5573 -0.4129,-0.3716 -0.6169,-0.8849 -0.6169,-1.54 V 8.5341001 h 0.8063 V 12.5137 c 0,0.4595 0.1312,0.8164 0.3886,1.0755 0.2574,0.2591 0.5974,0.3911 1.0054,0.3911 0.4372,0 0.7917,-0.132 1.0637,-0.3911 0.272,-0.2591 0.4129,-0.616 0.4129,-1.0755 V 8.5341001 h 0.8063 z"
     fill="#000000"
     id="path2904" />
  <path
     d="m 43.4413,13.3201 c 0,-0.176 -0.068,-0.3227 -0.204,-0.4351 -0.136,-0.1125 -0.3885,-0.2102 -0.7674,-0.2982 -0.5197,-0.1125 -0.9229,-0.2689 -1.1997,-0.4743 -0.2769,-0.2053 -0.4177,-0.4742 -0.4177,-0.8164 0,-0.3618 0.1554,-0.6747 0.4614,-0.9289 0.306,-0.2542 0.7043,-0.3861999 1.19,-0.3861999 0.4857,0 0.9083,0.1368999 1.2191,0.4106999 0.3109,0.2737 0.4615,0.5915 0.4469,0.9582 l -0.0097,0.0244 h -0.7674 c 0,-0.1906 -0.0826,-0.3666 -0.2526,-0.5231 -0.1652,-0.1564 -0.3789,-0.2347 -0.6363,-0.2347 -0.2817,0 -0.4954,0.0636 -0.6363,0.1956 -0.1408,0.132 -0.2088,0.2836 -0.2088,0.4596 0,0.176 0.0582,0.3128 0.1797,0.4057 0.1214,0.0978 0.3691,0.1858 0.748,0.264 0.544,0.1174 0.952,0.2787 1.2337,0.4889 0.2817,0.2102 0.4226,0.4889 0.4226,0.8262 0,0.396 -0.1603,0.7187 -0.476,0.968 -0.3158,0.2494 -0.7335,0.3765 -1.2435,0.3765 -0.5634,0 -1.0103,-0.1418 -1.3308,-0.4302 -0.3255,-0.2885 -0.476,-0.6258 -0.4615,-1.0071 l 0.0098,-0.0245 h 0.7674 c 0.0146,0.2885 0.1214,0.4987 0.3206,0.6307 0.1991,0.132 0.4322,0.2004 0.6994,0.2004 0.2866,0 0.51,-0.0586 0.6703,-0.1809 0.1603,-0.1222 0.2428,-0.2786 0.2428,-0.4693 z"
     fill="#000000"
     id="path2906" />
  <path
     d="m 47.0788,14.6062 c -0.6363,0 -1.1317,-0.2054 -1.4863,-0.6111 -0.3546,-0.4107 -0.5343,-0.9485 -0.5343,-1.6134 v -0.1809 c 0,-0.6404 0.1846,-1.1684 0.5489,-1.584 0.3642,-0.4204 0.816,-0.6256999 1.3405,-0.6256999 0.5926,0 1.0346,0.1856999 1.3309,0.5572999 0.2963,0.3716 0.442,0.8604 0.442,1.4764 v 0.4303 h -2.8269 l -0.0097,0.0195 c 0,0.4449 0.0972,0.8116 0.2963,1.0902 0.1943,0.2787 0.4954,0.4156 0.8986,0.4156 0.272,0 0.51,-0.0391 0.7188,-0.1173 0.204,-0.0783 0.3837,-0.1858 0.5295,-0.3227 l 0.3157,0.528 c -0.1603,0.1516 -0.3643,0.2836 -0.6266,0.3862 -0.2574,0.1076 -0.5731,0.1565 -0.9374,0.1565 z m -0.1263,-3.9845 c -0.2817,0 -0.5149,0.1076 -0.6994,0.3276 -0.1846,0.22 -0.2963,0.4987 -0.3352,0.836 l 0.0097,0.0195 h 1.9963 v -0.0635 c 0,-0.3227 -0.0777,-0.5916 -0.238,-0.8018 -0.1603,-0.2102 -0.4031,-0.3178 -0.7334,-0.3178 z"
     fill="#000000"
     id="path2908" />
  <path
     d="M 52.5823,8.9252001 H 51.776 v -0.8262 h 0.8063 z m 0,5.5928999 H 51.776 v -4.4538 h 0.8063 z"
     fill="#000000"
     id="path2910" />
  <path
     d="m 54.5407,10.0694 0.0583,0.66 c 0.1457,-0.2347 0.3303,-0.4205 0.5537,-0.5476 0.2234,-0.132 0.476,-0.1955999 0.7577,-0.1955999 0.476,0 0.8452,0.1417999 1.1075,0.4204999 0.2622,0.2787 0.3934,0.7138 0.3934,1.3004 v 2.8111 H 56.605 v -2.7915 c 0,-0.3911 -0.0777,-0.6698 -0.2331,-0.836 -0.1555,-0.1662 -0.3886,-0.2445 -0.7043,-0.2445 -0.2477,0 -0.4566,0.0489 -0.6315,0.1516 -0.1748,0.0978 -0.3108,0.2396 -0.4128,0.4204 v 3.3049 H 53.817 v -4.4537 h 0.7188 z"
     fill="#000000"
     id="path2912" />
  <path
     d="m 62.0163,12.8703 0.1409,0.5573 h 0.0242 l 1.088,-3.3635 h 0.8938 l -1.8603,5.1333 c -0.1117,0.2982 -0.272,0.5573 -0.4809,0.7822 -0.2088,0.2249 -0.4906,0.3325 -0.8451,0.3325 -0.0632,0 -0.1506,-0.0098 -0.2477,-0.0245 -0.102,-0.0146 -0.1798,-0.0293 -0.2332,-0.044 l 0.0826,-0.6355 c 0,0 0.034,0 0.1457,0.0097 0.1117,0.0098 0.1846,0.0147 0.2137,0.0147 0.17,0 0.3109,-0.0782 0.4226,-0.2298 0.1068,-0.1515 0.1991,-0.3226 0.272,-0.5084 l 0.1943,-0.4645 -1.6417,-4.3608 h 0.8985 z"
     fill="#000000"
     id="path2914" />
  <path
     d="m 64.6246,12.2494 c 0,-0.66 0.1749,-1.2026 0.5294,-1.628 0.3546,-0.4253 0.8355,-0.6403999 1.4426,-0.6403999 0.6071,0 1.0977,0.2150999 1.4523,0.6354999 0.3546,0.4254 0.5343,0.968 0.5343,1.628 v 0.0929 c 0,0.6649 -0.1749,1.2076 -0.5295,1.628 -0.3545,0.4205 -0.8354,0.6356 -1.4474,0.6356 -0.612,0 -1.0928,-0.2102 -1.4474,-0.6356 -0.3546,-0.4253 -0.5343,-0.968 -0.5343,-1.628 v -0.0929 z m 0.8063,0.0929 c 0,0.4742 0.0971,0.8605 0.2963,1.1685 0.1991,0.308 0.4905,0.4595 0.8791,0.4595 0.3886,0 0.6752,-0.1515 0.8743,-0.4595 0.1991,-0.308 0.2963,-0.6943 0.2963,-1.1685 v -0.0929 c 0,-0.4644 -0.102,-0.8555 -0.3012,-1.1635 -0.1991,-0.308 -0.4954,-0.4645 -0.8791,-0.4645 -0.3837,0 -0.6751,0.1565 -0.8743,0.4645 -0.1991,0.308 -0.2963,0.6991 -0.2963,1.1635 v 0.0929 z"
     fill="#000000"
     id="path2916" />
  <path
     d="m 72.3763,13.863 c -0.1409,0.2395 -0.3157,0.4204 -0.5343,0.5524 -0.2186,0.1271 -0.4711,0.1956 -0.7577,0.1956 -0.4809,0 -0.8597,-0.1565 -1.1269,-0.4645 -0.272,-0.308 -0.4031,-0.792 -0.4031,-1.4471 v -2.6253 h 0.8063 v 2.6351 c 0,0.4742 0.068,0.8018 0.2088,0.9778 0.1409,0.176 0.3546,0.2689 0.6509,0.2689 0.2963,0 0.5246,-0.0587 0.7091,-0.1761 0.1846,-0.1173 0.3255,-0.2835 0.4226,-0.4937 V 10.079 h 0.8063 v 4.4537 h -0.7237 l -0.0534,-0.66 z"
     fill="#000000"
     id="path2918" />
  <path
     d="m 76.4173,10.7831 -0.4129,-0.0244 c -0.2137,0 -0.3934,0.0489 -0.5391,0.1515 -0.1458,0.1027 -0.2575,0.2445 -0.3352,0.4303 v 3.1826 h -0.8063 v -4.4537 h 0.7189 l 0.0777,0.6502 c 0.1263,-0.2298 0.2817,-0.4107 0.4663,-0.5378 0.1846,-0.1271 0.3934,-0.1955999 0.6363,-0.1955999 0.0583,0 0.1165,0 0.17,0.0147 0.0534,0.0098 0.0971,0.0196 0.136,0.0293 z"
     fill="#000000"
     id="path2920" />
  <path
     d="m 43.544,25.2738 h 0.0437 l 1.3406,-6.9177 h 2.0934 l -2.3654,10.1933 h -1.8846 l -1.8651,-6.7125 h -0.0437 l -1.8555,6.7125 H 37.1229 L 34.7574,18.3561 h 2.0935 l 1.3502,6.908 h 0.0438 l 1.8214,-6.908 h 1.6417 z"
     fill="#000000"
     id="path2922" />
  <path
     d="m 50.9944,28.7007 c -1.122,0 -1.9963,-0.3471 -2.6277,-1.0413 -0.6315,-0.6942 -0.9472,-1.584 -0.9472,-2.6791 v -0.2787 c 0,-1.1342 0.306,-2.0631 0.918,-2.7866 0.612,-0.7236 1.4523,-1.0805 2.5257,-1.0805 1.0103,0 1.7875,0.3129 2.3266,0.9338 0.5392,0.6209 0.8112,1.4618 0.8112,2.5178 v 1.056 h -4.488 l -0.0195,0.044 c 0.034,0.5182 0.1895,0.9386 0.4712,1.2613 0.2817,0.3227 0.6945,0.484 1.2483,0.484 0.4565,0 0.8402,-0.0489 1.156,-0.1418 0.3157,-0.0929 0.646,-0.2346 0.986,-0.4253 l 0.5488,1.2613 c -0.3011,0.2494 -0.7091,0.4547 -1.224,0.6209 -0.5148,0.1662 -1.0734,0.2542 -1.6854,0.2542 z m -0.1312,-6.2871 c -0.408,0 -0.7237,0.1418 -0.9422,0.4254 -0.2186,0.2835 -0.3546,0.6551 -0.3983,1.1244 l 0.0145,0.0342 h 2.4772 v -0.1515 c 0,-0.4449 -0.0923,-0.792 -0.272,-1.0463 -0.1797,-0.2542 -0.4712,-0.3813 -0.8743,-0.3813 z"
     fill="#000000"
     id="path2924" />
  <path
     d="m 61.9676,24.9754 c 0,1.1293 -0.2525,2.0338 -0.7528,2.7085 -0.5003,0.6746 -1.224,1.0168 -2.1712,1.0168 -0.442,0 -0.8257,-0.0928 -1.1511,-0.2786 -0.3254,-0.1858 -0.6023,-0.4596 -0.8306,-0.8214 l -0.1651,0.9534 H 55.1773 V 17.6323 h 2.0255 v 4.1507 c 0.2185,-0.3031 0.4808,-0.5378 0.782,-0.6991 0.3011,-0.1614 0.6508,-0.2445 1.0443,-0.2445 0.9568,0 1.6854,0.3618 2.1857,1.0902 0.5003,0.7236 0.7528,1.6916 0.7528,2.904 v 0.1467 z m -2.0254,-0.1467 c 0,-0.7382 -0.1069,-1.32 -0.3254,-1.7551 -0.2137,-0.4302 -0.5829,-0.6453 -1.1026,-0.6453 -0.3157,0 -0.5829,0.0684 -0.8014,0.2004 -0.2186,0.132 -0.3886,0.3227 -0.5149,0.572 v 3.2072 c 0.1263,0.2297 0.2963,0.4057 0.5197,0.5231 0.2186,0.1222 0.4906,0.1809 0.8112,0.1809 0.5245,0 0.8888,-0.1858 1.0977,-0.5574 0.2088,-0.3715 0.3108,-0.8946 0.3108,-1.5791 v -0.1467 z"
     fill="#000000"
     id="path2926" />
  <path
     d="M 66.9215,28.5541 V 18.3608 h 3.3174 c 1.19,0 2.1226,0.2347 2.788,0.704 0.6655,0.4693 1.0006,1.1636 1.0006,2.0876 0,0.4693 -0.1214,0.8849 -0.3594,1.2515 -0.2429,0.3667 -0.5926,0.6454 -1.0589,0.8311 0.6314,0.1174 1.1074,0.3911 1.428,0.8263 0.3206,0.4351 0.4809,0.9386 0.4809,1.5204 0,0.9778 -0.3206,1.716 -0.9617,2.2147 -0.6412,0.5035 -1.5446,0.7529 -2.7201,0.7529 h -3.9148 z m 2.0303,-5.9204 h 1.3551 c 0.544,0 0.9617,-0.1124 1.2532,-0.3373 0.2914,-0.2249 0.4371,-0.5525 0.4371,-0.9778 0,-0.4693 -0.1457,-0.8213 -0.442,-1.0413 -0.2963,-0.2249 -0.7334,-0.3374 -1.3163,-0.3374 h -1.2871 z m 0,1.4129 v 2.9382 h 1.8845 c 0.5392,0 0.9472,-0.1173 1.2289,-0.352 0.2817,-0.2347 0.4226,-0.5867 0.4226,-1.0462 0,-0.4938 -0.1409,-0.8751 -0.4177,-1.1391 -0.2769,-0.264 -0.6995,-0.4009 -1.258,-0.4009 h -1.8652 z"
     fill="#000000"
     id="path2928" />
  <path
     d="m 79.8029,22.7365 -0.7431,-0.0196 c -0.3012,0 -0.5489,0.0636 -0.7432,0.1907 -0.1943,0.1271 -0.3448,0.3031 -0.4468,0.5329 v 5.1186 h -2.0255 v -7.5729 h 1.8846 l 0.0923,1.1196 c 0.1749,-0.396 0.4031,-0.704 0.6849,-0.9289 0.2817,-0.22 0.6022,-0.3324 0.9714,-0.3324 0.102,0 0.1943,0.0097 0.2817,0.0244 0.0874,0.0147 0.1749,0.0342 0.2623,0.0587 l -0.2137,1.8137 z"
     fill="#000000"
     id="path2930" />
  <path
     d="m 80.4049,24.6965 c 0,-1.1293 0.3108,-2.0533 0.9374,-2.7768 0.6266,-0.7236 1.4912,-1.0805 2.6034,-1.0805 1.1123,0 1.9866,0.3569 2.6132,1.0805 0.6266,0.7235 0.9471,1.6475 0.9471,2.7768 v 0.1467 c 0,1.1391 -0.3157,2.068 -0.9423,2.7818 -0.6265,0.7186 -1.496,1.0755 -2.6034,1.0755 -1.1074,0 -1.9817,-0.3569 -2.6131,-1.0755 -0.6266,-0.7187 -0.9423,-1.6427 -0.9423,-2.7818 z m 2.0254,0.1467 c 0,0.6893 0.1214,1.2467 0.3594,1.6622 0.2429,0.4156 0.6315,0.6258 1.1706,0.6258 0.5392,0 0.9083,-0.2102 1.1512,-0.6307 0.2428,-0.4204 0.3642,-0.9728 0.3642,-1.6573 v -0.1467 c 0,-0.6697 -0.1214,-1.2222 -0.3691,-1.6426 -0.2477,-0.4205 -0.6314,-0.6356 -1.1609,-0.6356 -0.5294,0 -0.9082,0.2151 -1.1511,0.6405 -0.2429,0.4253 -0.3643,0.9729 -0.3643,1.6426 v 0.1467 z"
     fill="#000000"
     id="path2932" />
  <path
     d="m 95.307,25.7381 h 0.043 l 0.914,-4.7618 h 1.976 l -1.913,7.5729 H 94.632 L 93.2327,24.1785 H 93.189 l -1.3989,4.3707 h -1.6903 l -1.9137,-7.5729 h 1.9769 l 0.9228,4.7373 h 0.0438 l 1.4037,-4.7373 h 1.3551 z"
     fill="#000000"
     id="path2934" />
  <path
     d="m 103.311,26.4517 c 0,-0.2249 -0.106,-0.4156 -0.325,-0.5769 -0.214,-0.1614 -0.617,-0.3031 -1.2,-0.4254 -0.879,-0.176 -1.549,-0.4449 -2.006,-0.8066 -0.456,-0.3569 -0.685,-0.8458 -0.685,-1.4618 0,-0.6502 0.272,-1.2027 0.821,-1.6573 0.549,-0.4547 1.273,-0.6845 2.186,-0.6845 0.913,0 1.71,0.2298 2.283,0.6845 0.573,0.4595 0.845,1.0266 0.826,1.7062 l -0.015,0.044 h -1.962 c 0,-0.3031 -0.097,-0.5525 -0.292,-0.7431 -0.194,-0.1907 -0.476,-0.2885 -0.84,-0.2885 -0.325,0 -0.583,0.0831 -0.772,0.2445 -0.19,0.1613 -0.287,0.3617 -0.287,0.6013 0,0.2396 0.097,0.4253 0.296,0.572 0.2,0.1467 0.598,0.2787 1.2,0.396 0.923,0.1858 1.608,0.4596 2.064,0.8213 0.457,0.3618 0.68,0.8605 0.68,1.496 0,0.6796 -0.291,1.2369 -0.869,1.672 -0.578,0.4351 -1.345,0.6503 -2.297,0.6503 -1.001,0 -1.793,-0.2543 -2.376,-0.7676 -0.582,-0.5133 -0.859,-1.0951 -0.83,-1.7453 l 0.014,-0.044 h 1.856 c 0.014,0.4057 0.146,0.6991 0.398,0.88 0.253,0.1809 0.578,0.2737 0.981,0.2737 0.374,0 0.661,-0.0782 0.86,-0.2297 0.199,-0.1516 0.296,-0.3569 0.296,-0.6209 z"
     fill="#000000"
     id="path2936" />
  <path
     d="m 109.849,28.7007 c -1.122,0 -1.996,-0.3471 -2.628,-1.0414 -0.631,-0.6942 -0.947,-1.584 -0.947,-2.6791 v -0.2786 c 0,-1.1343 0.306,-2.0632 0.918,-2.7867 0.612,-0.7236 1.452,-1.0805 2.526,-1.0805 1.01,0 1.787,0.3129 2.326,0.9338 0.539,0.6209 0.811,1.4618 0.811,2.5178 v 1.056 h -4.488 l -0.019,0.044 c 0.034,0.5182 0.189,0.9387 0.471,1.2613 0.282,0.3227 0.695,0.484 1.248,0.484 0.457,0 0.841,-0.0488 1.156,-0.1417 0.316,-0.0929 0.646,-0.2347 0.986,-0.4254 l 0.549,1.2614 c -0.301,0.2493 -0.709,0.4546 -1.224,0.6209 -0.515,0.1662 -1.073,0.2542 -1.685,0.2542 z m -0.131,-6.2871 c -0.408,0 -0.724,0.1417 -0.943,0.4253 -0.218,0.2836 -0.354,0.6551 -0.398,1.1244 l 0.015,0.0343 h 2.477 V 23.846 c 0,-0.4449 -0.092,-0.792 -0.272,-1.0462 -0.18,-0.2542 -0.471,-0.3814 -0.874,-0.3814 z"
     fill="#000000"
     id="path2938" />
  <path
     d="m 117.994,22.7365 -0.743,-0.0196 c -0.301,0 -0.549,0.0636 -0.743,0.1907 -0.194,0.1271 -0.345,0.3031 -0.447,0.5329 v 5.1186 h -2.025 v -7.5729 h 1.884 l 0.093,1.1196 c 0.174,-0.396 0.403,-0.704 0.684,-0.9289 0.282,-0.22 0.603,-0.3324 0.972,-0.3324 0.102,0 0.194,0.0097 0.282,0.0244 0.087,0.0147 0.174,0.0342 0.262,0.0587 l -0.214,1.8137 z"
     fill="#000000"
     id="path2940" />
  <path
     d="M 117.22002,0.3822405 H 6.779616 c -3.5331718,0 -6.3973755,3.0214377 -6.3973755,6.7485692 V 31.869191 c 0,3.727103 2.8642037,6.748569 6.3973755,6.748569 H 117.22002 c 3.53371,0 6.39774,-3.021466 6.39774,-6.748569 V 7.1308097 c 0,-3.7271315 -2.86403,-6.7485692 -6.39774,-6.7485692 z"
     stroke="#000000"
     stroke-width="0.764481"
     stroke-miterlimit="10"
     id="path2942" />
</svg>
