<?xml version="1.0" encoding="UTF-8" standalone="no"?>
<svg
   width="124"
   height="39"
   viewBox="0 0 124 39"
   fill="none"
   version="1.1"
   id="svg331"
   sodipodi:docname="google-play.svg"
   inkscape:version="1.2.1 (9c6d41e4, 2022-07-14)"
   xmlns:inkscape="http://www.inkscape.org/namespaces/inkscape"
   xmlns:sodipodi="http://sodipodi.sourceforge.net/DTD/sodipodi-0.dtd"
   xmlns="http://www.w3.org/2000/svg"
   xmlns:svg="http://www.w3.org/2000/svg">
  <sodipodi:namedview
     id="namedview333"
     pagecolor="#ffffff"
     bordercolor="#999999"
     borderopacity="1"
     inkscape:showpageshadow="0"
     inkscape:pageopacity="0"
     inkscape:pagecheckerboard="0"
     inkscape:deskcolor="#d1d1d1"
     showgrid="false"
     inkscape:zoom="9.5114504"
     inkscape:cx="57.930177"
     inkscape:cy="25.390449"
     inkscape:window-width="1920"
     inkscape:window-height="607"
     inkscape:window-x="172"
     inkscape:window-y="25"
     inkscape:window-maximized="0"
     inkscape:current-layer="svg331" />
  <path
     d="m 9.4010102,8.3401 c -0.25204,0.2635 -0.40101,0.6723 -0.40101,1.2017 v 18.9159 c 0,0.5302 0.14897,0.9382 0.40101,1.2017 l 0.0641,0.0615 L 20.1955,19.1246 V 18.9998 18.8749 L 9.4651102,8.2777 Z"
     fill="url(#paint0_linear_1338_2752)"
     id="path243"
     style="fill:url(#paint0_linear_1338_2752)" />
  <path
     d="m 23.7725,22.6587 -3.5762,-3.5332 v -0.1249 -0.1249 l 3.5771,-3.5324 0.0805,0.0454 4.2379,2.3777 c 1.2109,0.6791 1.2109,1.7901 0,2.4701 l -4.2379,2.3777 z"
     fill="url(#paint1_linear_1338_2752)"
     id="path245"
     style="fill:url(#paint1_linear_1338_2752)" />
  <path
     d="M 23.8543,22.6125 20.1967,18.9998 9.4013702,29.6594 c 0.39928,0.4174 1.0575298,0.4687 1.7998298,0.0521 z"
     fill="url(#paint2_linear_1338_2752)"
     id="path247"
     style="fill:url(#paint2_linear_1338_2752)" />
  <path
     d="M 23.8544,15.387 11.2021,8.288 C 10.4599,7.8714302 9.8016202,7.9236002 9.4023402,8.3401 L 20.1968,18.9997 Z"
     fill="url(#paint3_linear_1338_2752)"
     id="path249"
     style="fill:url(#paint3_linear_1338_2752)" />
  <path
     opacity="0.2"
     d="M 23.7738,22.533 11.202,29.5866 c -0.7033,0.3943 -1.3320598,0.3687 -1.7356698,0.0094 l -0.06496,0.0642 0.06409,0.0616 C 9.8690702,30.081 10.4979,30.1075 11.2012,29.7124 l 12.6522,-7.099 z"
     fill="#000000"
     id="path251" />
  <path
     opacity="0.12"
     d="m 9.4010102,29.5345 c -0.25204,-0.2635 -0.40101,-0.6723 -0.40101,-1.2017 v 0.1248 c 0,0.5295 0.14897,0.9383 0.40101,1.2017 l 0.06496,-0.0641 z"
     fill="#000000"
     id="path253" />
  <path
     opacity="0.12"
     d="m 28.0919,20.1099 -4.3185,2.4231 0.0806,0.0795 4.2379,-2.3777 c 0.6054,-0.3395 0.9077,-0.7869 0.9077,-1.2342 -0.0511,0.4046 -0.3594,0.8014 -0.9077,1.1093 z"
     fill="#000000"
     id="path255" />
  <path
     opacity="0.25"
     d="m 11.2008,8.4128 16.8902,9.4768 c 0.5491,0.3079 0.8566,0.7047 0.9077,1.1101 0,-0.4473 -0.3023,-0.8955 -0.9077,-1.235 L 11.2008,8.288 C 9.9899702,7.6088502 9.0000002,8.1725 9.0000002,9.5418 v 0.1258 c 0,-1.3694 0.99084,-1.9338798 2.2007998,-1.2548 z"
     fill="#ffffff"
     id="path257" />
  <path
     d="m 61.0852,20.705 c -2.3172,0 -4.2058,1.788 -4.2058,4.253 0,2.449 1.8886,4.253 4.2058,4.253 2.3171,0 4.2057,-1.804 4.2057,-4.253 0,-2.465 -1.8886,-4.253 -4.2057,-4.253 z m 0,6.831 c -1.2699,0 -2.3654,-1.063 -2.3654,-2.578 0,-1.531 1.0955,-2.578 2.3654,-2.578 1.2699,0 2.3644,1.047 2.3644,2.578 0,1.514 -1.0945,2.578 -2.3644,2.578 z m -9.176,-6.831 c -2.3172,0 -4.2058,1.788 -4.2058,4.253 0,2.449 1.8886,4.253 4.2058,4.253 2.3171,0 4.2057,-1.804 4.2057,-4.253 0.001,-2.465 -1.8886,-4.253 -4.2057,-4.253 z m 0,6.831 c -1.2699,0 -2.3645,-1.063 -2.3645,-2.578 0,-1.531 1.0956,-2.578 2.3645,-2.578 1.2699,0 2.3644,1.047 2.3644,2.578 10e-4,1.514 -1.0945,2.578 -2.3644,2.578 z M 40.9953,22.01 v 1.804 h 4.254 c -0.1271,1.015 -0.4601,1.756 -0.9684,2.272 -0.6187,0.628 -1.5872,1.321 -3.2856,1.321 -2.6186,0 -4.6658,-2.143 -4.6658,-4.801 0,-2.658 2.0472,-4.801 4.6658,-4.801 1.4127,0 2.4442,0.564 3.2058,1.289 l 1.2541,-1.273 C 44.3922,16.79 42.9795,16 40.9953,16 c -3.5871,0 -6.6027,2.964 -6.6027,6.605 0,3.641 3.0156,6.605 6.6027,6.605 1.9359,0 3.3969,-0.644 4.5397,-1.853 1.1744,-1.192 1.5399,-2.868 1.5399,-4.221 0,-0.419 -0.0316,-0.806 -0.0956,-1.128 h -5.984 z m 44.6368,1.401 c -0.3488,-0.951 -1.4128,-2.707 -3.5871,-2.707 -2.1585,0 -3.9516,1.724 -3.9516,4.253 0,2.384 1.7773,4.253 4.1585,4.253 1.9201,0 3.0314,-1.192 3.4915,-1.885 l -1.4285,-0.967 c -0.4759,0.709 -1.1271,1.176 -2.063,1.176 -0.9369,0 -1.6029,-0.435 -2.0315,-1.289 l 5.6028,-2.352 z m -5.7141,1.418 c -0.0473,-1.643 1.2541,-2.481 2.19,-2.481 0.7301,0 1.3488,0.37 1.5557,0.902 z m -4.5555,4.124 h 1.8413 V 16.452 h -1.8413 z m -3.0157,-7.298 h -0.063 c -0.4128,-0.499 -1.2059,-0.951 -2.2058,-0.951 -2.0955,0 -4.0157,1.869 -4.0157,4.269 0,2.384 1.9202,4.237 4.0157,4.237 0.9999,0 1.793,-0.451 2.2058,-0.967 h 0.063 v 0.612 c 0,1.627 -0.8571,2.497 -2.2383,2.497 -1.1271,0 -1.8256,-0.822 -2.1113,-1.514 l -1.6029,0.677 c 0.4601,1.128 1.6827,2.513 3.7142,2.513 2.1585,0 3.9841,-1.289 3.9841,-4.43 v -7.636 h -1.7458 z m -2.1102,5.881 c -1.2699,0 -2.333,-1.079 -2.333,-2.562 0,-1.498 1.0631,-2.594 2.333,-2.594 1.2541,0 2.2373,1.095 2.2373,2.594 0,1.482 -0.9832,2.562 -2.2373,2.562 z M 94.2564,16.452 h -4.4048 v 12.501 h 1.8374 v -4.736 h 2.5664 c 2.0376,0 4.0406,-1.497 4.0406,-3.882 0,-2.385 -2.002,-3.883 -4.0396,-3.883 z m 0.0473,6.025 H 91.689 v -4.285 h 2.6147 c 1.3743,0 2.1543,1.155 2.1543,2.143 0,0.968 -0.78,2.142 -2.1543,2.142 z m 11.3613,-1.795 c -1.331,0 -2.709,0.595 -3.28,1.914 l 1.633,0.692 c 0.348,-0.692 0.998,-0.917 1.679,-0.917 0.951,0 1.917,0.579 1.933,1.608 v 0.129 c -0.333,-0.193 -1.046,-0.483 -1.917,-0.483 -1.758,0 -3.55,0.981 -3.55,2.815 0,1.673 1.443,2.75 3.058,2.75 1.237,0 1.918,-0.563 2.345,-1.222 h 0.063 v 0.965 h 1.775 V 24.14 c 0,-2.22 -1.632,-3.458 -3.739,-3.458 z m -0.223,6.851 c -0.602,0 -1.442,-0.306 -1.442,-1.061 0,-0.965 1.046,-1.335 1.949,-1.335 0.807,0 1.188,0.177 1.679,0.418 -0.142,1.158 -1.124,1.978 -2.186,1.978 z m 10.426,-6.578 -2.107,5.42 h -0.063 l -2.186,-5.42 h -1.98 l 3.279,7.575 -1.87,4.214 h 1.918 l 5.055,-11.789 z M 99.31,28.953 h 1.839 V 16.452 H 99.31 Z"
     fill="#000000"
     id="path259" />
  <path
     fill-rule="evenodd"
     clip-rule="evenodd"
     d="m 66.5184,11.224 c -0.5813,0.607 -1.3034,0.909 -2.1674,0.909 -0.864,0 -1.5862,-0.303 -2.1665,-0.909 -0.5812,-0.606 -0.8709,-1.348 -0.8709,-2.225 0,-0.877 0.2897,-1.6189898 0.8709,-2.2249898 0.5803,-0.607 1.3025,-0.91 2.1665,-0.91 0.859,0 1.5802,0.305 2.1634,0.914 0.5833,0.609 0.8749,1.3489898 0.8749,2.2209898 0,0.878 -0.2906,1.62 -0.8709,2.225 z m -3.7733,-0.502 c 0.4374,0.45 0.9724,0.674 1.6059,0.674 0.6334,0 1.1684,-0.225 1.6058,-0.674 0.4374,-0.45 0.6571,-1.024 0.6571,-1.722 0,-0.698 -0.2197,-1.2729898 -0.6571,-1.7219898 -0.4364,-0.45 -0.9724,-0.674 -1.6058,-0.674 -0.6335,0 -1.1685,0.225 -1.6059,0.674 C 62.3087,7.7280102 62.089,8.302 62.089,9 c 0,0.698 0.2197,1.272 0.6561,1.722 z"
     fill="#000000"
     id="path261" />
  <path
     d="m 40.7154,9.243 c 0,0.838 -0.2443,1.505 -0.734,2.003 -0.5556,0.592 -1.2807,0.888 -2.1713,0.888 -0.8532,0 -1.5793,-0.3 -2.1753,-0.9 -0.597,-0.601 -0.8955,-1.345 -0.8955,-2.233 0,-0.889 0.2985,-1.6329898 0.8955,-2.2329898 0.596,-0.601 1.3221,-0.901 2.1753,-0.901 0.4236,0 0.8285,0.084 1.2127,0.251 0.3852,0.168 0.6936,0.391 0.9241,0.67 l -0.5191,0.528 c -0.3912,-0.475 -0.9301,-0.712 -1.6187,-0.712 -0.6226,0 -1.1606,0.222 -1.6147,0.666 C 35.7412,7.7140102 35.5146,8.29 35.5146,9 c 0,0.71 0.2266,1.286 0.6808,1.731 0.4541,0.444 0.992,0.666 1.6147,0.666 0.6601,0 1.2108,-0.223 1.6511,-0.67 0.2858,-0.291 0.4513,-0.696 0.4956,-1.215 H 37.8101 V 8.79 h 2.8639 c 0.0286,0.157 0.0414,0.308 0.0414,0.453 z"
     fill="#000000"
     id="path263" />
  <path
     d="M 45.2571,6.7370202 H 42.5656 V 8.639 h 2.4275 V 9.36 h -2.4275 v 1.902 h 2.6915 V 12 H 41.806 V 6.0000202 h 3.4511 z"
     fill="#000000"
     id="path265" />
  <path
     d="m 47.6994,12 h 0.7595 V 6.7370202 h 1.6512 v -0.737 h -4.0619 v 0.737 h 1.6512 z"
     fill="#000000"
     id="path267" />
  <path
     d="M 53.0499,12 V 6.0000202 h 0.7596 V 12 Z"
     fill="#000000"
     id="path269" />
  <path
     d="m 56.4173,12 h 0.7596 V 6.7370202 h 1.6511 v -0.737 h -4.0619 v 0.737 h 1.6512 z"
     fill="#000000"
     id="path271" />
  <path
     d="M 68.4552,6.0000202 V 12 h 0.7577 V 8.262 L 69.1803,7.1060202 h 0.0326 L 72.2186,12 h 0.7931 V 6.0000202 H 72.2521 V 9.512 l 0.0326,1.156 H 72.2521 L 69.3793,6.0000202 Z"
     fill="#000000"
     id="path273" />
  <path
     fill-rule="evenodd"
     clip-rule="evenodd"
     d="m 66.5184,11.224 c -0.5813,0.607 -1.3034,0.909 -2.1674,0.909 -0.864,0 -1.5862,-0.303 -2.1665,-0.909 -0.5812,-0.606 -0.8709,-1.348 -0.8709,-2.225 0,-0.877 0.2897,-1.6189898 0.8709,-2.2249898 0.5803,-0.607 1.3025,-0.91 2.1665,-0.91 0.859,0 1.5802,0.305 2.1634,0.914 0.5833,0.609 0.8749,1.3489898 0.8749,2.2209898 0,0.878 -0.2906,1.62 -0.8709,2.225 z m -3.7733,-0.502 c 0.4374,0.45 0.9724,0.674 1.6059,0.674 0.6334,0 1.1684,-0.225 1.6058,-0.674 0.4374,-0.45 0.6571,-1.024 0.6571,-1.722 0,-0.698 -0.2197,-1.2729898 -0.6571,-1.7219898 -0.4364,-0.45 -0.9724,-0.674 -1.6058,-0.674 -0.6335,0 -1.1685,0.225 -1.6059,0.674 C 62.3087,7.7280102 62.089,8.302 62.089,9 c 0,0.698 0.2197,1.272 0.6561,1.722 z"
     stroke="#000000"
     stroke-width="0.2"
     stroke-miterlimit="10"
     id="path275" />
  <path
     d="m 40.7154,9.243 c 0,0.838 -0.2443,1.505 -0.734,2.003 -0.5556,0.592 -1.2807,0.888 -2.1713,0.888 -0.8532,0 -1.5793,-0.3 -2.1753,-0.9 -0.597,-0.601 -0.8955,-1.345 -0.8955,-2.233 0,-0.889 0.2985,-1.6329898 0.8955,-2.2329898 0.596,-0.601 1.3221,-0.901 2.1753,-0.901 0.4236,0 0.8285,0.084 1.2127,0.251 0.3852,0.168 0.6936,0.391 0.9241,0.67 l -0.5191,0.528 c -0.3912,-0.475 -0.9301,-0.712 -1.6187,-0.712 -0.6226,0 -1.1606,0.222 -1.6147,0.666 C 35.7412,7.7140102 35.5146,8.29 35.5146,9 c 0,0.71 0.2266,1.286 0.6808,1.731 0.4541,0.444 0.992,0.666 1.6147,0.666 0.6601,0 1.2108,-0.223 1.6511,-0.67 0.2858,-0.291 0.4513,-0.696 0.4956,-1.215 H 37.8101 V 8.79 h 2.8639 c 0.0286,0.157 0.0414,0.308 0.0414,0.453 z"
     stroke="#000000"
     stroke-width="0.2"
     stroke-miterlimit="10"
     id="path277" />
  <path
     d="M 45.2571,6.7370202 H 42.5656 V 8.639 h 2.4275 V 9.36 h -2.4275 v 1.902 h 2.6915 V 12 H 41.806 V 6.0000202 h 3.4511 z"
     stroke="#000000"
     stroke-width="0.2"
     stroke-miterlimit="10"
     id="path279" />
  <path
     d="m 47.6994,12 h 0.7595 V 6.7370202 h 1.6512 v -0.737 h -4.0619 v 0.737 h 1.6512 z"
     stroke="#000000"
     stroke-width="0.2"
     stroke-miterlimit="10"
     id="path281" />
  <path
     d="M 53.0499,12 V 6.0000202 h 0.7596 V 12 Z"
     stroke="#000000"
     stroke-width="0.2"
     stroke-miterlimit="10"
     id="path283" />
  <path
     d="m 56.4173,12 h 0.7596 V 6.7370202 h 1.6511 v -0.737 h -4.0619 v 0.737 h 1.6512 z"
     stroke="#000000"
     stroke-width="0.2"
     stroke-miterlimit="10"
     id="path285" />
  <path
     d="M 68.4552,6.0000202 V 12 h 0.7577 V 8.262 L 69.1803,7.1060202 h 0.0326 L 72.2186,12 h 0.7931 V 6.0000202 H 72.2521 V 9.512 l 0.0326,1.156 H 72.2521 L 69.3793,6.0000202 Z"
     stroke="#000000"
     stroke-width="0.2"
     stroke-miterlimit="10"
     id="path287" />
  <path
     d="M 117.22576,0.3765225 H 6.7744851 c -3.5334995,0 -6.39796259,3.0223413 -6.39796259,6.7505875 v 24.74578 c 0,3.728217 2.86446309,6.750587 6.39796259,6.750587 H 117.22576 c 3.53339,0 6.39772,-3.02237 6.39772,-6.750587 V 7.12711 c 0,-3.7282462 -2.86433,-6.7505875 -6.39772,-6.7505875 z"
     stroke="#000000"
     stroke-width="0.753045"
     stroke-miterlimit="10"
     id="path289" />
  <defs
     id="defs329">
    <linearGradient
       id="paint0_linear_1338_2752"
       x1="19.244101"
       y1="11.3424"
       x2="4.8912601"
       y2="25.876801"
       gradientUnits="userSpaceOnUse"
       gradientTransform="translate(0,-2)">
      <stop
         stop-color="#00A0FF"
         id="stop291" />
      <stop
         offset="0.0066"
         stop-color="#00A1FF"
         id="stop293" />
      <stop
         offset="0.2601"
         stop-color="#00BEFF"
         id="stop295" />
      <stop
         offset="0.5122"
         stop-color="#00D2FF"
         id="stop297" />
      <stop
         offset="0.7604"
         stop-color="#00DFFF"
         id="stop299" />
      <stop
         offset="1"
         stop-color="#00E3FF"
         id="stop301" />
    </linearGradient>
    <linearGradient
       id="paint1_linear_1338_2752"
       x1="29.667601"
       y1="21.0002"
       x2="8.7101603"
       y2="21.0002"
       gradientUnits="userSpaceOnUse"
       gradientTransform="translate(0,-2)">
      <stop
         stop-color="#FFE000"
         id="stop304" />
      <stop
         offset="0.4087"
         stop-color="#FFBD00"
         id="stop306" />
      <stop
         offset="0.7754"
         stop-color="#FFA500"
         id="stop308" />
      <stop
         offset="1"
         stop-color="#FF9C00"
         id="stop310" />
    </linearGradient>
    <linearGradient
       id="paint2_linear_1338_2752"
       x1="21.866501"
       y1="22.962799"
       x2="2.4028299"
       y2="42.672699"
       gradientUnits="userSpaceOnUse"
       gradientTransform="translate(0,-2)">
      <stop
         stop-color="#FF3A44"
         id="stop313" />
      <stop
         offset="1"
         stop-color="#C31162"
         id="stop315" />
    </linearGradient>
    <linearGradient
       id="paint3_linear_1338_2752"
       x1="6.6837702"
       y1="4.0436702"
       x2="15.3752"
       y2="12.8449"
       gradientUnits="userSpaceOnUse"
       gradientTransform="translate(0,-2)">
      <stop
         stop-color="#32A071"
         id="stop318" />
      <stop
         offset="0.0685"
         stop-color="#2DA771"
         id="stop320" />
      <stop
         offset="0.4762"
         stop-color="#15CF74"
         id="stop322" />
      <stop
         offset="0.8009"
         stop-color="#06E775"
         id="stop324" />
      <stop
         offset="1"
         stop-color="#00F076"
         id="stop326" />
    </linearGradient>
  </defs>
</svg>
