<?xml version="1.0" encoding="UTF-8" standalone="no"?>
<!-- Created with Inkscape (http://www.inkscape.org/) -->

<svg
   width="64"
   height="64"
   id="svg3007"
   version="1.1"
   xmlns="http://www.w3.org/2000/svg"
   xmlns:svg="http://www.w3.org/2000/svg"
   xmlns:rdf="http://www.w3.org/1999/02/22-rdf-syntax-ns#"
   xmlns:cc="http://creativecommons.org/ns#"
   xmlns:dc="http://purl.org/dc/elements/1.1/">
  <defs
     id="defs3009" />
  <metadata
     id="metadata3012">
    <rdf:RDF>
      <cc:Work
         rdf:about="">
        <dc:format>image/svg+xml</dc:format>
        <dc:type
           rdf:resource="http://purl.org/dc/dcmitype/StillImage" />
      </cc:Work>
    </rdf:RDF>
  </metadata>
  <path
     style="font-variation-settings:normal;opacity:1;vector-effect:none;fill:#ffffff;fill-opacity:1;fill-rule:evenodd;stroke:none;stroke-width:1;stroke-linecap:butt;stroke-linejoin:miter;stroke-miterlimit:4;stroke-dasharray:none;stroke-dashoffset:0;stroke-opacity:1;-inkscape-stroke:none;stop-color:#000000;stop-opacity:1"
     id="rect552"
     width="64"
     height="64"
     x="1.7763568e-15"
     y="1.7763568e-15"
     d="M 10,0 H 54 A 10,10 45 0 1 64,10 V 54 A 10,10 135 0 1 54,64 H 10 A 10,10 45 0 1 0,54 V 10 A 10,10 135 0 1 10,0 Z" />
  <path
     style="color:#000000;font-style:normal;font-variant:normal;font-weight:normal;font-stretch:normal;font-size:medium;line-height:normal;font-family:'Bitstream Vera Sans';-inkscape-font-specification:'Bitstream Vera Sans';text-indent:0;text-align:start;text-decoration:none;text-decoration-line:none;letter-spacing:normal;word-spacing:normal;text-transform:none;writing-mode:lr-tb;direction:ltr;baseline-shift:baseline;text-anchor:start;display:inline;overflow:visible;visibility:visible;fill:#000000;fill-opacity:1;stroke:none;stroke-width:22.6909;marker:none;enable-background:accumulate"
     d="m 33.780314,2.0002713 c -0.410997,-7.266e-4 -0.839691,0.015984 -1.28674,0.050472 C 21.19489,2.93226 24.19138,14.49576 24.023685,18.368001 c -0.206335,2.831742 -0.799001,5.063352 -2.809381,7.831719 -2.361896,2.720955 -5.687178,7.124848 -7.262451,11.709152 -0.743456,2.163583 -1.097239,4.368872 -0.770512,6.456021 -0.102348,0.08883 -0.199784,0.181816 -0.292432,0.277635 -0.693452,0.717187 -1.205835,1.586168 -1.776759,2.171237 -0.533394,0.515444 -1.2933466,0.7115 -2.1284713,1.001758 -0.835444,0.290394 -1.7526978,0.718515 -2.3094764,1.75354 0,0 0,3.58e-4 -3.73e-4,5.04e-4 -9.087e-4,0.0019 -0.0019,0.0029 -0.00285,0.0048 v 0 c -0.5040241,0.911984 -0.3541856,1.962209 -0.2002532,2.935225 0.1539369,0.973006 0.3097742,1.892459 0.1029206,2.516277 -0.661197,1.75075 -0.7456133,2.961779 -0.280152,3.840215 0.4664537,0.880267 1.4255212,1.268804 2.5094757,1.48813 2.1679146,0.438642 5.1038396,0.329638 7.4176886,1.517677 l 0.198878,-0.363524 -0.196819,0.364609 c 2.477087,1.254623 4.988366,1.700249 6.991926,1.256928 1.452613,-0.321422 2.631791,-1.159345 3.237375,-2.448707 1.567104,-0.0078 3.286725,-0.65043 6.041344,-0.797371 1.868736,-0.145816 4.203116,0.642875 6.888231,0.498443 0.07019,0.282208 0.171769,0.553662 0.310817,0.811592 0.0014,0.0029 0.0028,0.0048 0.0042,0.0077 1.04089,2.016392 2.97494,2.938683 5.036044,2.781106 2.063823,-0.157781 4.258083,-1.336685 6.031806,-3.381568 l -0.325167,-0.264731 0.327653,0.261815 c 1.690624,-1.985875 4.496781,-2.809345 6.357489,-3.896537 0.930358,-0.543616 1.685274,-1.2243 1.743602,-2.212942 0.0583,-0.988147 -0.540547,-2.095529 -1.917569,-3.576306 0,0 -3.73e-4,-3.59e-4 -3.73e-4,-3.59e-4 -5.22e-4,-6.49e-4 -0.0011,-9.69e-4 -0.0016,-0.0019 -0.452443,-0.495314 -0.668285,-1.413333 -0.900239,-2.390941 -0.231796,-0.977006 -0.490535,-2.030932 -1.318521,-2.713932 v 0 c -0.0017,-9.69e-4 -0.0033,-0.0029 -0.005,-0.0039 0,0 0,0 0,0 -0.329527,-0.278168 -0.671963,-0.466958 -1.016814,-0.593807 1.151163,-3.307371 0.699499,-6.600724 -0.462528,-9.576762 -1.426135,-3.65235 -3.915953,-6.834878 -5.817468,-9.012005 C 45.299489,24.017981 43.217691,21.548727 43.258701,17.901721 43.322104,12.335586 43.890706,2.0133688 33.780069,2 Z m 1.368782,8.5751687 c 0.573722,0 1.063719,0.162905 1.567054,0.51682 0.511329,0.359533 0.879704,0.809606 1.176605,1.438113 0.2914,0.612533 0.431603,1.211736 0.44535,1.92281 0,0.0187 0,0.03459 0.0055,0.05328 0.0055,0.729703 -0.123706,1.350228 -0.409612,1.984064 -0.163138,0.361674 -0.350486,0.665223 -0.574727,0.928036 -0.07613,-0.03546 -0.155193,-0.06946 -0.237194,-0.102116 v 0 c -0.568398,-0.235843 -1.004428,-0.385932 -1.367834,-0.508092 0.131732,-0.153392 0.241423,-0.335324 0.337878,-0.562758 0.145701,-0.343549 0.217177,-0.679115 0.230922,-1.07858 0,-0.01599 0.0055,-0.02935 0.0055,-0.04795 0.0082,-0.38349 -0.04398,-0.711064 -0.159446,-1.046631 -0.120959,-0.351531 -0.274909,-0.604531 -0.497582,-0.814924 -0.222675,-0.210394 -0.445349,-0.306262 -0.712012,-0.314264 -0.0125,-7.26e-4 -0.02497,-7.26e-4 -0.03728,-7.26e-4 -0.250831,7.26e-4 -0.468632,0.08409 -0.69397,0.266814 -0.23642,0.191755 -0.41236,0.436762 -0.558064,0.777647 -0.1457,0.340884 -0.217177,0.679105 -0.230918,1.081244 -0.0028,0.01599 -0.0028,0.02935 -0.0028,0.04524 -0.0048,0.22105 0.0097,0.423548 0.04493,0.620186 -0.513236,-0.247749 -0.996897,-0.416661 -1.450819,-0.521315 -0.02588,-0.190157 -0.04084,-0.386387 -0.04562,-0.591559 v -0.0559 c -0.0082,-0.72705 0.115462,-1.350229 0.404115,-1.984055 0.288655,-0.633845 0.646033,-1.089246 1.149113,-1.459426 0.503079,-0.37018 0.99791,-0.540622 1.583465,-0.545951 0.0091,0 0.0183,0 0.0274,0 z m -7.852556,0.602293 c 0.380596,8.72e-4 0.721158,0.124049 1.073427,0.396559 0.382121,0.295605 0.670774,0.673777 0.912692,1.206417 0.241918,0.53264 0.371125,1.06527 0.406862,1.693777 v 0.0048 c 0.01732,0.263966 0.0152,0.512441 -0.0063,0.753089 -0.07527,0.02073 -0.149039,0.04311 -0.221299,0.06723 -0.410378,0.136846 -0.772042,0.32334 -1.087258,0.524977 0.03082,-0.210927 0.03541,-0.424934 0.01177,-0.663548 -0.0028,-0.01337 -0.0028,-0.02393 -0.0028,-0.0373 -0.03299,-0.316918 -0.101715,-0.583238 -0.217176,-0.852221 -0.123706,-0.279621 -0.261162,-0.476704 -0.442602,-0.628508 -0.164426,-0.137563 -0.319785,-0.200735 -0.490709,-0.199486 -0.01768,0 -0.03557,9.5e-4 -0.05361,0.0019 -0.192436,0.01598 -0.351882,0.106514 -0.503083,0.284949 -0.151198,0.178435 -0.250162,0.399475 -0.321638,0.692416 -0.07148,0.292951 -0.09072,0.580583 -0.06048,0.910812 0,0.01327 0.0028,0.02393 0.0028,0.0373 0.03299,0.319591 0.09896,0.585902 0.217175,0.854886 0.120959,0.276966 0.261162,0.474039 0.442602,0.625843 0.03039,0.02538 0.06045,0.04824 0.09037,0.06869 -0.188725,0.140711 -0.278841,0.205579 -0.433492,0.315668 -0.09919,0.07052 -0.217323,0.154458 -0.354629,0.252505 -0.299434,-0.271745 -0.533029,-0.613259 -0.73727,-1.062935 -0.241918,-0.53263 -0.371125,-1.06527 -0.409612,-1.693787 v -0.0048 c -0.03574,-0.628497 0.02749,-1.169129 0.206181,-1.72839 0.17869,-0.559271 0.417862,-0.964065 0.764241,-1.296977 0.346383,-0.332892 0.695519,-0.500671 1.116127,-0.521964 0.03286,-0.0019 0.06543,-0.0029 0.09768,-0.0019 z m 3.571305,4.360357 c 0.884597,-0.0029 1.949092,0.277644 3.237806,1.080334 0.791586,0.498685 1.407535,0.54036 2.825874,1.128849 l 0.0017,7.26e-4 0.0017,6.59e-4 c 0.682421,0.271241 1.082968,0.624797 1.278664,0.997099 0.195692,0.372311 0.200478,0.776039 0.03668,1.200759 -0.327584,0.849451 -1.37323,1.743407 -2.840566,2.187299 l -0.0014,5.81e-4 -0.0013,5.72e-4 c -0.715466,0.225196 -1.339347,0.722486 -2.074861,1.129934 -0.735494,0.407428 -1.56776,0.736039 -2.699415,0.672624 0,-9e-6 0,0 0,0 -0.9634,-0.05444 -1.539284,-0.371235 -2.060001,-0.776649 -0.520732,-0.405423 -0.974502,-0.914745 -1.638964,-1.292723 l -0.0017,-9.69e-4 -0.0017,-9.69e-4 c -1.070293,-0.586047 -1.654623,-1.263864 -1.83801,-1.85148 -0.183394,-0.587626 -0.01129,-1.089208 0.519745,-1.474742 0.597028,-0.43345 1.011759,-0.72829 1.288021,-0.924695 0.274445,-0.195097 0.388627,-0.268247 0.476023,-0.349545 4.47e-4,-6.49e-4 9.17e-4,-9.2e-4 0.0014,-9.69e-4 0,0 3.73e-4,-6.58e-4 3.73e-4,-6.58e-4 0.448593,-0.411352 1.163684,-1.160789 2.241607,-1.520245 0.371,-0.123719 0.784979,-0.203545 1.248338,-0.205318 z m 6.185754,3.544105 c -0.381733,0.02209 -0.781531,0.212447 -1.247044,0.464226 -0.465518,0.251769 -0.989008,0.573831 -1.556323,0.890991 -1.134626,0.63432 -2.440726,1.240954 -3.738735,1.240954 -1.300026,0 -2.338672,-0.58164 -3.117706,-1.179699 -0.389519,-0.299025 -0.711004,-0.60023 -0.967846,-0.833234 -0.12842,-0.116512 -0.239796,-0.21581 -0.34372,-0.293368 -0.103906,-0.0776 -0.188484,-0.154468 -0.362363,-0.154468 l -0.0083,0.353954 c -0.01245,0.11843 -0.02524,0.114778 -0.02019,0.118013 0.0081,0.0048 0.04846,0.0186 0.09553,0.05377 0.0764,0.05706 0.182455,0.149973 0.308323,0.26416 0.251739,0.228373 0.586247,0.542375 0.998089,0.858537 0.823674,0.632325 1.969166,1.28107 3.418212,1.28107 1.45106,0 2.823933,-0.657038 3.980658,-1.303709 0.578357,-0.323331 1.103638,-0.646091 1.550306,-0.887669 0.446646,-0.241578 0.822442,-0.393061 1.040006,-0.405636 z m 1.289832,1.682201 c 0.963767,3.680428 3.205368,8.996353 4.646106,11.590625 0.765803,1.376394 2.28936,4.300749 2.947609,7.824075 0.417094,-0.0124 0.876359,0.04631 1.368179,0.168185 1.721039,-4.322314 -1.45942,-8.978015 -2.913762,-10.274594 -0.58716,-0.551947 -0.615383,-0.79924 -0.324303,-0.787547 1.577902,1.351788 3.649341,4.070661 4.402982,7.139544 0.343648,1.399364 0.416915,2.870473 0.0482,4.322324 0.180398,0.07266 0.363613,0.151542 0.549298,0.236695 2.762587,1.303205 3.784286,2.436443 3.293044,3.983105 -0.161798,-0.0058 -0.320952,-0.0048 -0.476188,-9.68e-4 -0.01449,3.68e-4 -0.02887,7.36e-4 -0.0433,9.68e-4 0.400053,-1.225986 -0.486199,-2.13022 -2.847778,-3.165342 -2.449426,-1.043967 -4.401265,-0.940107 -4.731153,1.177122 -0.02111,0.110922 -0.03809,0.223947 -0.05103,0.33855 -0.182998,0.06152 -0.366992,0.140169 -0.551447,0.237945 -1.150168,0.609675 -1.777943,1.715904 -2.127098,3.07271 -0.348873,1.355712 -0.448889,2.994687 -0.545174,4.837071 0,3.68e-4 0,6.59e-4 0,9.59e-4 -0.05883,0.926418 -0.451996,2.179423 -0.850752,3.506566 -4.012537,2.772774 -9.581554,3.974096 -14.309861,0.848056 -0.320438,-0.491071 -0.688022,-0.977617 -1.066387,-1.457499 -0.241618,-0.306445 -0.48982,-0.611031 -0.73658,-0.911315 0.485386,3.68e-4 0.897966,-0.07663 1.231414,-0.223114 0.414663,-0.182145 0.706013,-0.474718 0.850151,-0.850303 0.288274,-0.751181 -0.0013,-1.810861 -0.924118,-3.020959 -0.922801,-1.210011 -2.485695,-2.575624 -4.782271,-3.940073 0,0 -3.74e-4,0 -3.74e-4,-3.59e-4 -1.687193,-1.016871 -2.630771,-2.263249 -3.072427,-3.61651 -0.441699,-1.353367 -0.379766,-2.816804 -0.03935,-4.26165 0.653404,-2.773346 2.332242,-5.470645 3.403436,-7.163357 0.288397,-0.205569 0.103039,0.381582 -1.084422,2.517779 -1.06423,1.953094 -3.05381,6.460381 -0.329718,9.978747 0.0728,-2.503849 0.690041,-5.057462 1.726245,-7.446068 1.50931,-3.314375 4.666242,-9.061899 4.916977,-13.642763 0.129275,0.09097 0.573513,0.38131 0.771458,0.490363 3.73e-4,5.81e-4 8.72e-4,5.81e-4 0.0013,6.49e-4 0.579145,0.330393 1.014107,0.813355 1.577454,1.251948 0.564462,0.439466 1.269628,0.819042 2.334992,0.879182 v 0 c 1.2435,0.06975 2.191229,-0.303413 2.967709,-0.733539 0.775312,-0.429487 1.394687,-0.904796 1.981482,-1.090322 9.18e-4,-5.81e-4 0.0018,-5.81e-4 0.0026,-8.23e-4 1.239951,-0.375634 2.225842,-1.040489 2.786869,-1.815947 z m 7.875579,21.070357 c 0.502233,-0.0019 1.110623,0.15995 1.776588,0.448571 1.792393,0.801624 2.353204,1.488721 1.863871,2.498065 -0.412359,0.761663 -2.177266,1.973408 -3.386858,1.653826 -1.234331,-0.308926 -1.83638,-2.031998 -1.635699,-3.334293 0.107497,-0.884335 0.623824,-1.26274 1.382098,-1.266169 z m -2.027957,2.37979 c 0.10132,1.592523 0.914647,3.216715 2.353033,3.568236 1.574048,0.401771 3.8435,-0.906578 4.801686,-1.973747 0.191061,-0.0078 0.377856,-0.01647 0.559265,-0.02073 0.840512,-0.01967 1.545473,0.02684 2.265753,0.637071 l 0.0025,0.0019 0.0026,0.0019 c 0.553517,0.454297 0.816623,1.312825 1.04482,2.274603 0.228184,0.961768 0.410659,2.009242 1.094989,2.755463 l 10e-4,9.69e-4 9.48e-4,9.68e-4 c 1.315641,1.414341 1.738529,2.370326 1.702533,2.980504 -0.036,0.610189 -0.492046,1.063168 -1.334155,1.555198 -1.683491,0.983662 -4.666397,1.839032 -6.571659,4.074749 -1.654369,1.907271 -3.67169,2.954774 -5.448319,3.090612 -1.776628,0.13582 -3.309439,-0.57851 -4.213127,-2.335614 l -0.0021,-0.0039 -0.0021,-0.0039 c -0.56062,-1.033136 -0.327082,-2.663557 0.145183,-4.383326 0.472274,-1.719788 1.150807,-3.485631 1.241637,-4.920887 v -0.0019 -0.0019 c 0.09609,-1.838954 0.202337,-3.444895 0.52121,-4.684017 0.318869,-1.239113 0.820968,-2.078324 1.710611,-2.549903 0.04143,-0.02199 0.08255,-0.04263 0.123448,-0.06229 z m -28.890174,0.120183 c 0.132783,5.04e-4 0.273303,0.01124 0.423014,0.03323 1.007037,0.147784 1.885209,0.829892 2.731286,1.941623 0.846084,1.111741 1.633347,2.629341 2.44264,4.312762 l 0.001,0.0019 9.47e-4,0.0019 c 0.650347,1.314957 2.022688,2.76084 3.185662,4.235853 1.162968,1.475014 2.063032,2.955598 1.945823,4.088806 l -5.22e-4,0.0048 -3.73e-4,0.0048 c -0.151621,1.932739 -1.277034,2.984902 -3.004655,3.367172 -1.727107,0.382144 -4.068461,9.68e-4 -6.407054,-1.182789 -6.71e-4,-3.59e-4 -0.0014,-6.5e-4 -0.0021,-9.69e-4 C 14.029221,59.816444 10.951278,59.948301 8.9768704,59.548817 7.9893983,59.349011 7.3450688,59.04863 7.0493414,58.490531 6.7535937,57.932443 6.7469932,56.958749 7.375446,55.298558 l 0.00276,-0.0078 0.00249,-0.0078 C 7.6914904,54.354325 7.461488,53.338151 7.310595,52.384365 7.1597018,51.43057 7.0859093,50.563003 7.4221044,49.958308 l 0.00155,-0.0029 0.00153,-0.0029 C 7.8556256,49.148724 8.4869915,48.861392 9.2705869,48.589047 10.054178,48.316691 10.98335,48.1028 11.717088,47.390457 l 0.0038,-0.0039 0.0038,-0.0039 c 0.678312,-0.69322 1.18783,-1.562153 1.784147,-2.17889 0.503143,-0.520366 1.006653,-0.865251 1.765594,-0.870357 0.0088,0 0.01761,0 0.02646,0 z"
     id="path154" />
</svg>
